<svg width="12.556641" height="20.000000" viewBox="0 0 12.5566 20" fill="none" xmlns="http://www.w3.org/2000/svg" xmlns:xlink="http://www.w3.org/1999/xlink">
	<desc>
			Created with Pixso.
	</desc>
	<defs/>
	<path id="Vector" d="M9.64 6.67C9.5 6.86 9.29 6.97 9.06 6.97C8.93 6.97 8.79 6.93 8.67 6.85L6.39 5.3C6.32 5.26 6.22 5.26 6.15 5.31L3.88 6.85C3.56 7.07 3.12 6.99 2.91 6.67C2.69 6.35 2.77 5.91 3.09 5.7L5.38 4.14C5.93 3.79 6.62 3.79 7.16 4.14L9.46 5.7C9.77 5.91 9.86 6.35 9.64 6.67ZM9.64 10.39C9.5 10.59 9.29 10.69 9.06 10.69C8.93 10.69 8.79 10.65 8.67 10.57L6.39 9.02C6.32 8.98 6.22 8.98 6.15 9.03L3.88 10.57C3.56 10.79 3.12 10.71 2.91 10.39C2.69 10.07 2.77 9.63 3.09 9.42L5.38 7.86C5.93 7.51 6.62 7.51 7.16 7.86L9.46 9.42C9.77 9.63 9.86 10.07 9.64 10.39ZM11.83 3.44L7.18 0.28C6.63 -0.1 5.92 -0.1 5.36 0.28L0.71 3.44C0.26 3.75 0 4.26 0 4.81L0 15.18C0 15.73 0.26 16.24 0.71 16.55L5.36 19.71C5.64 19.9 5.96 20 6.27 20C6.59 20 6.91 19.9 7.18 19.71L11.83 16.55C12.28 16.24 12.55 15.73 12.55 15.18L12.55 4.81C12.55 4.26 12.28 3.75 11.83 3.44Z" fill="#5D67FF" fill-opacity="1.000000" fill-rule="nonzero"/>
</svg>
