<svg width="15.714844" height="20.000000" viewBox="0 0 15.7148 20" fill="none" xmlns="http://www.w3.org/2000/svg" xmlns:xlink="http://www.w3.org/1999/xlink">
	<desc>
			Created with Pixso.
	</desc>
	<defs/>
	<path id="Vector" d="M12.44 4.39C12.44 5.26 12.17 6.11 11.66 6.83C11.16 7.56 10.44 8.12 9.61 8.45C8.77 8.78 7.85 8.87 6.96 8.7C6.07 8.53 5.25 8.11 4.61 7.5C3.97 6.88 3.53 6.1 3.36 5.25C3.18 4.4 3.27 3.51 3.62 2.71C3.96 1.91 4.55 1.22 5.31 0.74C6.06 0.25 6.95 0 7.85 0C8.45 6.1e-5 9.05 0.11 9.61 0.33C10.16 0.55 10.67 0.87 11.09 1.28C11.52 1.69 11.86 2.18 12.09 2.71C12.32 3.24 12.44 3.81 12.44 4.39ZM7.85 10.09C6.55 10.09 5.27 10.34 4.08 10.85C2.89 11.35 1.83 12.08 0.95 13C-0.59 14.61 -0.22 17.19 1.73 18.34C3.57 19.42 5.69 20 7.85 20C10.01 20 12.13 19.42 13.97 18.34C15.92 17.19 16.3 14.61 14.75 13C13.88 12.08 12.81 11.35 11.62 10.85C10.43 10.34 9.15 10.09 7.85 10.09Z" fill="#5D67FF" fill-opacity="1.000000" fill-rule="nonzero"/>
</svg>
