<svg width="20.000000" height="16.571594" viewBox="0 0 20 16.5716" fill="none" xmlns="http://www.w3.org/2000/svg" xmlns:xlink="http://www.w3.org/1999/xlink">
	<desc>
			Created with Pixso.
	</desc>
	<defs/>
	<path id="Vector" d="M11.39 1.39C11.39 2.16 10.77 2.79 10 2.79C9.22 2.79 8.6 2.16 8.6 1.39C8.6 0.62 9.22 0 10 0C10.77 0 11.39 0.62 11.39 1.39ZM14.4 8.11L16.94 7.47C17.14 7.42 17.35 7.43 17.55 7.48C17.75 7.54 17.93 7.64 18.08 7.79C18.22 7.93 18.33 8.11 18.38 8.31C18.44 8.51 18.44 8.72 18.39 8.92L16.8 15.29C16.71 15.65 16.5 15.98 16.2 16.21C15.9 16.44 15.54 16.57 15.16 16.57L4.83 16.57C4.45 16.57 4.09 16.44 3.79 16.21C3.49 15.98 3.28 15.65 3.19 15.29L1.6 8.92C1.55 8.72 1.55 8.51 1.61 8.31C1.66 8.11 1.77 7.93 1.91 7.79C2.06 7.64 2.24 7.54 2.44 7.48C2.64 7.43 2.85 7.42 3.05 7.47L5.59 8.11C5.64 8.12 5.7 8.12 5.75 8.1C5.81 8.08 5.85 8.05 5.89 8.01L8.68 4.52C8.84 4.33 9.04 4.18 9.27 4.08C9.5 3.97 9.75 3.92 10 3.92C10.25 3.92 10.49 3.97 10.72 4.08C10.95 4.18 11.15 4.33 11.31 4.52L14.1 8.01C14.14 8.05 14.18 8.08 14.24 8.1C14.29 8.12 14.35 8.12 14.4 8.11ZM2.79 5.34C2.79 6.11 2.16 6.74 1.39 6.74C0.62 6.74 0 6.11 0 5.34C0 4.57 0.62 3.95 1.39 3.95C2.16 3.95 2.79 4.57 2.79 5.34ZM18.6 6.74C19.37 6.74 20 6.11 20 5.34C20 4.57 19.37 3.95 18.6 3.95C17.83 3.95 17.2 4.57 17.2 5.34C17.2 6.11 17.83 6.74 18.6 6.74Z" fill="#5D67FF" fill-opacity="1.000000" fill-rule="evenodd"/>
</svg>
