<svg width="20.000000" height="20.000000" viewBox="0 0 20 20" fill="none" xmlns="http://www.w3.org/2000/svg" xmlns:xlink="http://www.w3.org/1999/xlink">
	<desc>
			Created with Pixso.
	</desc>
	<defs/>
	<path id="Vector" d="M18.8 7.06C18.41 7 18.04 6.85 17.72 6.62C17.39 6.39 17.12 6.08 16.92 5.72C16.72 5.36 16.6 4.96 16.57 4.55C16.54 4.13 16.6 3.72 16.74 3.33C16.83 3.08 16.84 2.8 16.78 2.54C16.71 2.28 16.57 2.04 16.38 1.87C15.5 1.1 14.51 0.49 13.44 0.08C13.2 -0.02 12.93 -0.03 12.68 0.04C12.43 0.12 12.21 0.27 12.05 0.48C11.8 0.81 11.49 1.08 11.14 1.26C10.78 1.45 10.39 1.54 10 1.54C9.6 1.54 9.21 1.45 8.85 1.26C8.5 1.08 8.19 0.81 7.94 0.48C7.78 0.27 7.56 0.12 7.31 0.04C7.06 -0.03 6.79 -0.02 6.55 0.08C5.56 0.46 4.64 1.01 3.82 1.7C3.61 1.87 3.46 2.11 3.39 2.38C3.32 2.65 3.33 2.93 3.43 3.2C3.58 3.59 3.65 4.02 3.61 4.45C3.58 4.88 3.46 5.29 3.25 5.66C3.03 6.03 2.75 6.34 2.4 6.56C2.06 6.79 1.67 6.93 1.26 6.97C1 7 0.75 7.12 0.56 7.31C0.36 7.49 0.23 7.74 0.18 8.02C0.06 8.67 0 9.33 0 9.99C0 10.54 0.04 11.1 0.12 11.64C0.16 11.93 0.29 12.19 0.49 12.38C0.69 12.58 0.94 12.71 1.21 12.74C1.62 12.78 2.02 12.92 2.37 13.16C2.72 13.4 3.01 13.72 3.22 14.1C3.42 14.48 3.54 14.9 3.56 15.34C3.58 15.78 3.5 16.22 3.33 16.62C3.22 16.87 3.19 17.17 3.25 17.44C3.31 17.72 3.46 17.97 3.67 18.15C4.54 18.91 5.52 19.51 6.58 19.92C6.71 19.97 6.85 19.99 7 20C7.19 19.99 7.38 19.94 7.56 19.85C7.73 19.75 7.88 19.62 8 19.45C8.23 19.08 8.55 18.78 8.92 18.58C9.29 18.37 9.71 18.26 10.13 18.26C10.54 18.26 10.94 18.36 11.3 18.56C11.66 18.75 11.98 19.03 12.22 19.38C12.38 19.6 12.61 19.77 12.87 19.85C13.13 19.93 13.41 19.91 13.66 19.8C14.63 19.39 15.53 18.83 16.33 18.12C16.53 17.95 16.67 17.71 16.74 17.44C16.8 17.17 16.78 16.89 16.69 16.64C16.53 16.24 16.46 15.82 16.49 15.39C16.51 14.97 16.63 14.56 16.83 14.19C17.04 13.82 17.32 13.51 17.66 13.27C17.99 13.04 18.37 12.89 18.77 12.84C19.03 12.8 19.28 12.68 19.46 12.49C19.65 12.29 19.78 12.04 19.82 11.77C19.93 11.18 19.99 10.59 20 9.99C20 9.36 19.94 8.73 19.83 8.11C19.78 7.84 19.66 7.6 19.48 7.41C19.29 7.22 19.06 7.1 18.8 7.06ZM13.33 9.99C13.33 10.69 13.13 11.37 12.77 11.95C12.4 12.52 11.88 12.98 11.27 13.24C10.66 13.51 9.99 13.58 9.34 13.44C8.7 13.31 8.1 12.97 7.64 12.48C7.17 11.99 6.85 11.36 6.73 10.68C6.6 9.99 6.66 9.29 6.91 8.64C7.17 8 7.59 7.45 8.14 7.06C8.69 6.68 9.33 6.47 10 6.47C10.88 6.47 11.73 6.84 12.35 7.5C12.98 8.16 13.33 9.06 13.33 9.99Z" fill="#5D67FF" fill-opacity="1.000000" fill-rule="nonzero"/>
</svg>
