<svg width="15.238281" height="20.000000" viewBox="0 0 15.2383 20" fill="none" xmlns="http://www.w3.org/2000/svg" xmlns:xlink="http://www.w3.org/1999/xlink">
	<desc>
			Created with Pixso.
	</desc>
	<defs/>
	<path id="Vector" d="M7.61 0C6.35 0 5.14 0.5 4.25 1.39C3.35 2.28 2.85 3.49 2.85 4.76L2.85 7.5C2.32 7.7 1.83 8.01 1.41 8.39C0.1 9.7 0 12.5 0 13.33C0 14.16 0.1 16.96 1.41 18.26C2.58 19.41 5.09 20 7.61 20C10.14 20 12.65 19.42 13.81 18.27C15.13 16.96 15.23 14.16 15.23 13.33C15.23 12.5 15.13 9.7 13.81 8.39C13.4 8.01 12.91 7.7 12.38 7.5L12.38 4.76C12.38 3.49 11.87 2.28 10.98 1.39C10.09 0.5 8.88 0 7.61 0ZM4.76 4.76C4.76 4 5.06 3.27 5.59 2.74C6.13 2.2 6.86 1.9 7.61 1.9C8.37 1.9 9.1 2.2 9.63 2.74C10.17 3.27 10.47 4 10.47 4.76L10.47 6.93C8.58 6.59 6.65 6.59 4.76 6.93L4.76 4.76ZM8.57 13.33L8.57 14.28C8.57 14.53 8.47 14.78 8.29 14.95C8.11 15.13 7.87 15.23 7.61 15.23C7.36 15.23 7.12 15.13 6.94 14.95C6.76 14.78 6.66 14.53 6.66 14.28L6.66 13.33C6.41 13.33 6.17 13.23 5.99 13.05C5.81 12.87 5.71 12.63 5.71 12.38C5.71 12.12 5.81 11.88 5.99 11.7C6.17 11.52 6.41 11.42 6.66 11.42L8.57 11.42C8.82 11.42 9.06 11.52 9.24 11.7C9.42 11.88 9.52 12.12 9.52 12.38C9.52 12.63 9.42 12.87 9.24 13.05C9.06 13.23 8.82 13.33 8.57 13.33Z" fill="#5D67FF" fill-opacity="1.000000" fill-rule="nonzero"/>
</svg>
