<svg width="19.166016" height="15.000000" viewBox="0 0 19.166 15" fill="none" xmlns="http://www.w3.org/2000/svg" xmlns:xlink="http://www.w3.org/1999/xlink">
	<desc>
			Created with Pixso.
	</desc>
	<defs/>
	<path id="Vector" d="M6.11 0.02C6.48 -0.07 6.85 0.09 7.05 0.41L7.88 1.76L11.27 1.76L12.11 0.41C12.3 0.09 12.68 -0.07 13.05 0.02L16.75 0.9C17.04 0.97 17.28 1.19 17.37 1.48L18.65 5.35C18.99 6.38 19.16 7.47 19.16 8.56L19.16 12.35C19.16 12.71 18.94 13.03 18.61 13.17L14.26 14.93C13.93 15.06 13.57 14.99 13.32 14.74L11.83 13.23L7.33 13.23L5.84 14.74C5.59 14.99 5.22 15.06 4.9 14.93L0.54 13.17C0.21 13.03 0 12.71 0 12.35L0 8.56C0 7.47 0.17 6.38 0.51 5.35L1.78 1.48C1.88 1.19 2.11 0.97 2.41 0.9L6.11 0.02ZM6.53 5.73C5.33 5.73 4.35 6.72 4.35 7.94C4.35 9.15 5.33 10.14 6.53 10.14C7.73 10.14 8.71 9.15 8.71 7.94C8.71 6.72 7.73 5.73 6.53 5.73ZM10.45 7.94C10.45 6.72 11.42 5.73 12.63 5.73C13.83 5.73 14.81 6.72 14.81 7.94C14.81 9.15 13.83 10.14 12.63 10.14C11.42 10.14 10.45 9.15 10.45 7.94Z" fill="#5F68FF" fill-opacity="1.000000" fill-rule="evenodd"/>
</svg>
