<svg width="10.833984" height="18.333344" viewBox="0 0 10.834 18.3333" fill="none" xmlns="http://www.w3.org/2000/svg" xmlns:xlink="http://www.w3.org/1999/xlink">
	<desc>
			Created with Pixso.
	</desc>
	<defs/>
	<path id="Vector" d="M5.41 2.77C6.51 2.77 7.41 3.65 7.41 4.73C7.41 5.81 6.51 6.68 5.41 6.68C4.31 6.68 3.41 5.81 3.41 4.73C3.41 3.65 4.31 2.77 5.41 2.77ZM5.41 9.46C8.08 9.46 10.24 7.34 10.24 4.73C10.24 2.12 8.08 0 5.41 0C2.75 0 0.59 2.12 0.59 4.73C0.59 7.34 2.75 9.46 5.41 9.46ZM7.36 13.32C8.35 13.1 9.29 12.72 10.17 12.18C10.83 11.77 11.03 10.92 10.61 10.27C10.19 9.62 9.32 9.42 8.66 9.83C6.68 11.05 4.14 11.05 2.16 9.83C1.5 9.42 0.63 9.62 0.21 10.27C-0.2 10.92 0 11.77 0.66 12.18C1.53 12.72 2.48 13.1 3.46 13.32L0.76 15.96C0.21 16.5 0.21 17.38 0.76 17.92C1.04 18.19 1.4 18.33 1.76 18.33C2.12 18.33 2.48 18.19 2.76 17.92L5.41 15.32L8.07 17.92C8.62 18.46 9.51 18.46 10.06 17.92C10.61 17.38 10.61 16.5 10.06 15.96L7.36 13.32Z" fill="#5F68FF" fill-opacity="1.000000" fill-rule="nonzero"/>
</svg>
