<svg width="22.500000" height="12.500000" viewBox="0 0 22.5 12.5" fill="none" xmlns="http://www.w3.org/2000/svg" xmlns:xlink="http://www.w3.org/1999/xlink">
	<desc>
			Created with Pixso.
	</desc>
	<defs/>
	<path id="Vector" d="M18.67 7.16C18.3 6.73 18.41 6.53 18.67 6.14C18.67 6.14 21.67 2.18 21.98 0.84L21.99 0.84C22.14 0.35 21.99 0 21.24 0L18.78 0C18.16 0 17.87 0.3 17.71 0.65C17.71 0.65 16.46 3.5 14.69 5.35C14.12 5.89 13.85 6.06 13.54 6.06C13.39 6.06 13.15 5.89 13.15 5.4L13.15 0.84C13.15 0.26 12.97 0 12.45 0L8.58 0C8.19 0 7.96 0.27 7.96 0.52C7.96 1.08 8.84 1.21 8.93 2.77L8.93 6.16C8.93 6.9 8.79 7.04 8.48 7.04C7.64 7.04 5.61 4.17 4.41 0.89C4.17 0.25 3.93 0 3.3 0L0.84 0C0.14 0 0 0.3 0 0.65C0 1.26 0.83 4.29 3.88 8.29C5.92 11.02 8.78 12.5 11.39 12.5C12.96 12.5 13.15 12.17 13.15 11.6C13.15 8.99 13.01 8.75 13.79 8.75C14.16 8.75 14.78 8.92 16.24 10.23C17.91 11.8 18.19 12.5 19.13 12.5L21.58 12.5C22.29 12.5 22.64 12.17 22.44 11.52C21.97 10.15 18.81 7.35 18.67 7.16Z" fill="#5F68FF" fill-opacity="1.000000" fill-rule="nonzero"/>
</svg>
