<svg width="22.000000" height="22.000000" viewBox="0 0 22 22" fill="none" xmlns="http://www.w3.org/2000/svg" xmlns:xlink="http://www.w3.org/1999/xlink">
	<desc>
			Created with Pixso.
	</desc>
	<defs/>
	<path id="Vector" d="M0 11C0 4.94 4.94 0 11 0C17.05 0 22 4.94 22 11C22 17.05 17.05 22 11 22C4.94 22 0 17.05 0 11ZM19.27 9.71C18.65 5.7 15.18 2.62 11 2.62C6.81 2.62 3.34 5.7 2.72 9.71L4.95 9.71C6.37 9.71 7.71 9.14 8.64 8.15C9.92 6.79 12.07 6.79 13.35 8.15C14.28 9.14 15.62 9.71 17.04 9.71L19.27 9.71ZM9.06 11.64C9.06 12.71 9.93 13.57 11 13.57C12.06 13.57 12.93 12.71 12.93 11.64C12.93 10.57 12.06 9.71 11 9.71C9.93 9.71 9.06 10.57 9.06 11.64ZM11.64 11.64C11.64 12 11.35 12.28 11 12.28C10.64 12.28 10.35 12 10.35 11.64C10.35 11.28 10.64 11 11 11C11.35 11 11.64 11.28 11.64 11.64ZM12.97 18.02C13.03 18.37 13.13 18.72 13.28 19.06C15.8 18.34 17.85 16.47 18.8 14.05C18.34 13.87 17.99 13.75 17.71 13.68C15.09 13.02 12.56 15.28 12.97 18.02L12.97 18.02ZM5.19 13.57C4.46 13.57 3.93 13.76 3.19 14.05C4.14 16.47 6.19 18.34 8.71 19.06C8.86 18.73 8.96 18.38 9.02 18.02L9.02 18.02C9.37 15.67 7.54 13.57 5.19 13.57Z" fill="#6069FF" fill-opacity="1.000000" fill-rule="evenodd"/>
</svg>
