<svg width="22.000000" height="22.000000" viewBox="0 0 22 22" fill="none" xmlns="http://www.w3.org/2000/svg" xmlns:xlink="http://www.w3.org/1999/xlink">
	<desc>
			Created with Pixso.
	</desc>
	<defs/>
	<path id="Vector" d="M19.26 2.86C19.26 4.44 17.98 5.73 16.4 5.73C14.81 5.73 13.53 4.44 13.53 2.86C13.53 1.28 14.81 0 16.4 0C17.98 0 19.26 1.28 19.26 2.86ZM5.6 0C7.18 0 8.46 1.28 8.46 2.87C8.45 4.45 7.17 5.73 5.59 5.73C4 5.72 2.72 4.44 2.73 2.86C2.73 1.27 4.01 -0.01 5.6 0ZM11 9.97C12.16 9.97 13.11 9.02 13.11 7.85C13.11 6.68 12.16 5.73 11 5.73C9.83 5.73 8.88 6.68 8.88 7.85C8.88 9.02 9.83 9.97 11 9.97ZM6.06 16.43L7.27 11.69C7.48 10.86 8.05 10.2 8.79 9.86C8.31 9.33 8.01 8.62 8.01 7.85C8.01 7.45 8.09 7.07 8.24 6.72C7.87 6.51 7.45 6.4 7.01 6.4L4.17 6.4C2.99 6.4 1.96 7.2 1.67 8.34L0.04 14.75C-0.2 15.7 0.52 16.62 1.5 16.62L2.72 16.62L2.72 20.71C2.72 21.42 3.3 22 4.01 22L7.17 22C7.54 22 7.87 21.84 8.1 21.6C8.05 21.42 8.02 21.23 8.02 21.04L8.02 18.88L7.97 18.88C7.36 18.88 6.79 18.6 6.41 18.12C6.08 17.69 5.94 17.16 6.02 16.63C6.03 16.56 6.04 16.49 6.06 16.43ZM20.32 8.34L21.95 14.75C22.19 15.7 21.47 16.62 20.49 16.62L19.27 16.62L19.27 20.7C19.27 21.41 18.69 21.99 17.98 21.99L14.82 21.99C14.45 21.99 14.12 21.84 13.89 21.59C13.94 21.41 13.97 21.23 13.97 21.04L13.97 18.88L14.02 18.88C14.63 18.88 15.2 18.6 15.58 18.12C15.91 17.69 16.05 17.16 15.97 16.62C15.96 16.56 15.95 16.49 15.93 16.43L14.73 11.69C14.51 10.86 13.94 10.2 13.2 9.86C13.68 9.33 13.98 8.62 13.98 7.85C13.98 7.45 13.9 7.06 13.75 6.72C14.12 6.51 14.54 6.4 14.98 6.4L17.82 6.4C19 6.4 20.02 7.2 20.32 8.34ZM13.89 11.9L15.1 16.64C15.28 17.34 14.75 18.02 14.02 18.02L13.12 18.02L13.12 21.04C13.12 21.57 12.69 22 12.16 22L9.83 22C9.3 22 8.88 21.57 8.88 21.04L8.88 18.02L7.97 18.02C7.24 18.02 6.71 17.34 6.89 16.64L8.1 11.9C8.31 11.06 9.07 10.47 9.95 10.47L12.04 10.47C12.92 10.47 13.68 11.06 13.89 11.9Z" fill="#6069FF" fill-opacity="1.000000" fill-rule="evenodd"/>
</svg>
