<svg width="20.000000" height="20.000000" viewBox="0 0 20 20" fill="none" xmlns="http://www.w3.org/2000/svg" xmlns:xlink="http://www.w3.org/1999/xlink">
	<desc>
			Created with Pixso.
	</desc>
	<defs/>
	<path id="Vector" d="M19.48 17L2.47 0L1.75 0L1.6 0.37C1.22 1.35 1.05 2.35 1.13 3.27C1.21 4.31 1.61 5.22 2.27 5.88L9.43 13.04L10.38 12.09L16.99 19.49C17.65 20.14 18.78 20.18 19.48 19.49C20.17 18.8 20.17 17.69 19.48 17ZM15.97 6.5L19.15 3.33L19.98 4.15L15.83 8.3C15.33 8.81 14.65 9.11 13.94 9.15C13.75 9.16 13.58 9.2 13.41 9.27L10.71 6.58C10.78 6.41 10.82 6.23 10.83 6.05C10.88 5.33 11.18 4.66 11.69 4.15L15.83 0.01L16.66 0.84L13.48 4.02L14.31 4.84L17.49 1.67L18.32 2.5L15.14 5.67L15.97 6.5ZM6.11 11.38L0.51 16.98C-0.18 17.67 -0.18 18.78 0.51 19.47C1.16 20.12 2.29 20.18 3 19.47L8.6 13.87L6.11 11.38Z" fill="#626AFF" fill-opacity="1.000000" fill-rule="evenodd"/>
</svg>
