<svg width="24.000000" height="17.577087" viewBox="0 0 24 17.5771" fill="none" xmlns="http://www.w3.org/2000/svg" xmlns:xlink="http://www.w3.org/1999/xlink">
	<desc>
			Created with Pixso.
	</desc>
	<defs/>
	<path id="Vector" d="M23.99 13.84C23.94 10.7 23.57 7.54 22.96 4.34C22.47 2.12 20.69 0.14 17.85 0C15.75 -0.09 15.35 1.11 12.97 1.08C12.32 1.08 11.67 1.08 11.02 1.08C8.64 1.11 8.24 -0.09 6.14 0C3.3 0.14 1.47 2.12 1.03 4.34C0.42 7.54 0.05 10.7 0 13.84C-0.02 16.02 2.13 17.47 3.55 17.57C6.3 17.77 8.48 12.93 10.14 12.93C11.38 12.94 12.61 12.94 13.85 12.93C15.51 12.93 17.69 17.77 20.44 17.57C21.86 17.47 24.06 16.01 23.99 13.84L23.99 13.84ZM8.94 7.73L7.66 7.73L7.66 9.01C7.66 9.55 7.23 9.98 6.69 9.98C6.15 9.98 5.71 9.55 5.71 9.01L5.71 7.73L4.43 7.73C3.89 7.73 3.45 7.29 3.45 6.75C3.45 6.21 3.89 5.77 4.43 5.77L5.71 5.77L5.71 4.49C5.71 3.95 6.15 3.51 6.69 3.51C7.23 3.51 7.66 3.95 7.66 4.49L7.66 5.77L8.94 5.77C9.48 5.77 9.92 6.21 9.92 6.75C9.92 7.29 9.48 7.73 8.94 7.73ZM16.85 9.98C16.08 10 15.44 9.4 15.42 8.63C15.4 7.87 16.01 7.23 16.77 7.21C17.54 7.19 18.18 7.79 18.2 8.56C18.21 9.33 17.61 9.96 16.85 9.98ZM19.15 6.29C18.39 6.31 17.75 5.7 17.73 4.94C17.71 4.17 18.31 3.53 19.08 3.51C19.85 3.49 20.48 4.1 20.5 4.86C20.52 5.63 19.92 6.27 19.15 6.29Z" fill="#6069FF" fill-opacity="1.000000" fill-rule="nonzero"/>
</svg>
