<svg width="22.000000" height="20.000000" viewBox="0 0 22 20" fill="none" xmlns="http://www.w3.org/2000/svg" xmlns:xlink="http://www.w3.org/1999/xlink">
	<desc>
			Created with Pixso.
	</desc>
	<defs/>
	<path id="Vector" d="M10.55 19.89L10.55 19.89C10.83 20.03 11.16 20.03 11.44 19.89C11.44 19.89 11.77 19.72 11.91 19.64C12.2 19.48 12.6 19.25 13.09 18.94C14.06 18.34 15.35 17.45 16.65 16.31C19.21 14.07 22 10.69 22 6.5C22 5.07 21.57 3.47 20.6 2.2C19.61 0.9 18.07 0 16 0C13.93 0 12.45 0.89 11.5 1.76C11.31 1.94 11.14 2.11 11 2.28C10.85 2.11 10.68 1.94 10.49 1.76C9.54 0.89 8.06 0 6 0C3.92 0 2.38 0.9 1.39 2.2C0.42 3.47 0 5.07 0 6.5C0 10.69 2.78 14.07 5.34 16.31C6.64 17.45 7.93 18.34 8.9 18.94C9.39 19.25 9.79 19.48 10.08 19.64C10.22 19.72 10.55 19.89 10.55 19.89ZM11.5 7C11.77 7 12 7.22 12 7.5L12 9L13.5 9C13.77 9 14 9.22 14 9.5L14 10.5C14 10.77 13.77 11 13.5 11L12 11L12 12.5C12 12.77 11.77 13 11.5 13L10.5 13C10.22 13 10 12.77 10 12.5L10 11L8.5 11C8.22 11 8 10.77 8 10.5L8 9.5C8 9.22 8.22 9 8.5 9L10 9L10 7.5C10 7.22 10.22 7 10.5 7L11.5 7Z" fill="#6069FF" fill-opacity="1.000000" fill-rule="evenodd"/>
</svg>
