<svg width="20.000000" height="15.555542" viewBox="0 0 20 15.5555" fill="none" xmlns="http://www.w3.org/2000/svg" xmlns:xlink="http://www.w3.org/1999/xlink">
	<desc>
			Created with Pixso.
	</desc>
	<defs/>
	<path id="Vector" d="M7.6 13.9L9.67 1.18L9.67 1.18C9.73 0.81 9.93 0.48 10.23 0.26C10.37 0.15 10.54 0.07 10.72 0.03C10.89 -0.01 11.08 -0.02 11.26 0.01C11.62 0.08 11.94 0.28 12.15 0.59C12.36 0.89 12.45 1.27 12.39 1.64L10.32 14.37C10.27 14.7 10.1 15 9.85 15.21C9.6 15.43 9.29 15.55 8.96 15.55C8.89 15.55 8.81 15.54 8.73 15.53C8.37 15.47 8.05 15.26 7.84 14.96C7.63 14.65 7.54 14.27 7.6 13.9ZM4.15 12.97C4.4 13.25 4.74 13.41 5.11 13.43C5.47 13.44 5.83 13.31 6.1 13.06C6.37 12.8 6.53 12.45 6.55 12.08C6.56 11.7 6.43 11.34 6.19 11.06L3.25 7.77L6.18 4.49C6.43 4.21 6.56 3.84 6.55 3.47C6.53 3.09 6.37 2.74 6.1 2.49C5.83 2.23 5.47 2.1 5.11 2.12C4.74 2.13 4.4 2.3 4.15 2.57L0.36 6.82C0.12 7.08 0 7.42 0 7.77C0 8.13 0.12 8.47 0.36 8.73L4.15 12.97ZM15.84 2.58C15.59 2.3 15.25 2.14 14.88 2.12C14.52 2.1 14.16 2.24 13.89 2.49C13.62 2.74 13.46 3.1 13.44 3.47C13.43 3.85 13.56 4.21 13.8 4.49L16.74 7.77L13.81 11.06C13.56 11.34 13.43 11.7 13.44 12.08C13.46 12.45 13.62 12.81 13.89 13.06C14.16 13.31 14.52 13.45 14.88 13.43C15.25 13.41 15.59 13.25 15.84 12.97L19.63 8.73C19.87 8.47 20 8.13 20 7.77C20 7.42 19.87 7.08 19.63 6.82L15.84 2.58Z" fill="#6069FF" fill-opacity="1.000000" fill-rule="evenodd"/>
</svg>
