<svg width="19.967285" height="20.000000" viewBox="0 0 19.9673 20" fill="none" xmlns="http://www.w3.org/2000/svg" xmlns:xlink="http://www.w3.org/1999/xlink">
	<desc>
			Created with Pixso.
	</desc>
	<defs/>
	<path id="Vector" d="M6.29 6.74C6.35 6.96 6.42 7.18 6.5 7.41C8.12 5.83 10.54 5.59 12.2 6.39C13.91 7.22 14.96 9.23 14.87 11.77C16.05 11.22 17.1 10.56 17.82 9.82C19.95 7.62 20.53 5.05 19.39 3.37C18.33 1.81 15.78 0.95 13.64 2.34C12.49 0.06 9.85 -0.46 8.16 0.36C6.33 1.24 5.53 3.76 6.29 6.74ZM11.8 7.23C10.11 6.42 7.47 6.94 6.31 9.22C4.17 7.82 1.63 8.69 0.57 10.24C-0.57 11.92 0 14.5 2.15 16.7C3.6 18.19 6.48 19.34 8.84 19.97C9.08 20.04 9.33 19.97 9.51 19.79C11.23 18.07 13.16 15.63 13.67 13.62C14.42 10.64 13.63 8.12 11.8 7.23Z" fill="#6069FF" fill-opacity="1.000000" fill-rule="evenodd"/>
</svg>
