<svg width="20.000000" height="15.279785" viewBox="0 0 20 15.2798" fill="none" xmlns="http://www.w3.org/2000/svg" xmlns:xlink="http://www.w3.org/1999/xlink">
	<desc>
			Created with Pixso.
	</desc>
	<defs/>
	<path id="Vector" d="M17.65 0.71L17.65 11.44C17.65 11.84 17.33 12.16 16.93 12.16C15.27 12.16 12.48 12.51 10.55 14.52L10.55 3.29C10.55 3.16 10.58 3.03 10.65 2.93C12.23 0.39 15.27 0 16.94 0L16.94 0C17.13 0 17.3 0.07 17.44 0.2C17.57 0.34 17.65 0.52 17.65 0.71ZM3.05 6.1e-5L3.05 6.1e-5C4.72 0 7.76 0.39 9.34 2.93C9.41 3.03 9.44 3.16 9.44 3.29L9.44 14.52C7.51 12.51 4.72 12.16 3.06 12.16C2.66 12.16 2.34 11.84 2.34 11.44L2.34 0.71C2.34 0.52 2.42 0.34 2.55 0.2C2.69 0.07 2.86 6.1e-5 3.05 6.1e-5ZM1.23 2.47L1.23 11.44C1.23 12.45 2.05 13.27 3.05 13.27C4.47 13.27 6.8 13.55 8.45 15.11C5.59 14.41 2.59 14.87 0.87 15.26C0.66 15.31 0.44 15.25 0.26 15.12C0.09 14.98 0 14.78 0 14.56L0 3.19C0 2.79 0.32 2.47 0.71 2.47L1.23 2.47ZM19.28 2.47L18.76 2.47L18.76 11.44C18.76 12.45 17.94 13.27 16.94 13.27C15.52 13.27 13.19 13.55 11.54 15.11C14.4 14.41 17.4 14.87 19.12 15.26C19.33 15.31 19.55 15.26 19.73 15.12C19.9 14.98 20 14.78 20 14.56L20 3.19C20 2.79 19.67 2.47 19.28 2.47Z" fill="#6069FF" fill-opacity="1.000000" fill-rule="evenodd"/>
</svg>
