<svg width="20.000000" height="18.666687" viewBox="0 0 20 18.6667" fill="none" xmlns="http://www.w3.org/2000/svg" xmlns:xlink="http://www.w3.org/1999/xlink">
	<desc>
			Created with Pixso.
	</desc>
	<defs/>
	<path id="Vector" d="M5.41 0L17.91 0C19.06 0 20 0.95 20 2.12L20 11.45C20 12.62 19.06 13.57 17.91 13.57L5.41 13.57C4.26 13.57 3.33 12.62 3.33 11.45L3.33 2.12C3.33 0.95 4.26 0 5.41 0ZM17.91 1.69L5.41 1.69C5.18 1.69 4.99 1.88 4.99 2.12L4.99 10.13L7.29 7.78C7.86 7.2 8.79 7.2 9.36 7.78L10.37 8.81L13.46 5.03C13.74 4.69 14.15 4.49 14.58 4.49C15.01 4.5 15.42 4.68 15.7 5.01L18.33 8.14L18.33 2.12C18.33 1.88 18.14 1.69 17.91 1.69ZM7.49 5.93C8.41 5.93 9.16 5.17 9.16 4.24C9.16 3.3 8.41 2.54 7.49 2.54C6.58 2.54 5.83 3.3 5.83 4.24C5.83 5.17 6.58 5.93 7.49 5.93ZM5.2 14.84C3.87 14.84 2.68 13.97 2.25 12.68L2.22 12.58C2.12 12.24 2.08 11.95 2.08 11.66L2.08 5.88L0.06 12.75C-0.2 13.76 0.39 14.81 1.38 15.09L14.27 18.6C14.43 18.64 14.59 18.66 14.75 18.66C15.58 18.66 16.34 18.1 16.55 17.27L17.3 14.84L5.2 14.84Z" fill="#6069FF" fill-opacity="1.000000" fill-rule="evenodd"/>
</svg>
