<svg width="21.818359" height="20.000000" viewBox="0 0 21.8184 20" fill="none" xmlns="http://www.w3.org/2000/svg" xmlns:xlink="http://www.w3.org/1999/xlink">
	<desc>
			Created with Pixso.
	</desc>
	<defs/>
	<path id="Vector" d="M21.81 10C21.81 8.96 21.4 7.97 20.67 7.24C19.95 6.51 18.96 6.11 17.94 6.11C17.82 6.11 17.7 6.12 17.58 6.13C17.65 6.03 17.72 5.93 17.78 5.82C18.03 5.38 18.2 4.89 18.26 4.38C18.33 3.88 18.29 3.36 18.16 2.87C18.03 2.37 17.8 1.91 17.49 1.51C17.18 1.11 16.8 0.77 16.36 0.52C15.47 0 14.42 -0.14 13.43 0.13C12.44 0.39 11.6 1.04 11.08 1.94C11.01 2.04 10.96 2.15 10.91 2.26C10.86 2.15 10.8 2.04 10.74 1.94C10.22 1.04 9.37 0.39 8.39 0.13C7.4 -0.14 6.34 0 5.46 0.52C5.02 0.77 4.63 1.11 4.32 1.51C4.01 1.91 3.79 2.37 3.65 2.87C3.52 3.36 3.49 3.88 3.56 4.38C3.62 4.89 3.79 5.38 4.04 5.82C4.1 5.93 4.17 6.03 4.24 6.13C4.12 6.12 4 6.11 3.87 6.11C3.37 6.1 2.86 6.2 2.39 6.39C1.92 6.58 1.49 6.87 1.13 7.23C0.77 7.59 0.49 8.02 0.29 8.5C0.1 8.97 0 9.48 0 10C0 10.51 0.1 11.02 0.29 11.49C0.49 11.97 0.77 12.4 1.13 12.76C1.49 13.12 1.92 13.41 2.39 13.6C2.86 13.79 3.37 13.89 3.87 13.88C4 13.88 4.12 13.87 4.24 13.86C4.17 13.96 4.1 14.06 4.04 14.17C3.79 14.61 3.62 15.1 3.56 15.61C3.49 16.11 3.52 16.63 3.65 17.12C3.79 17.62 4.01 18.08 4.32 18.48C4.63 18.88 5.02 19.22 5.46 19.47C6.34 19.99 7.4 20.13 8.39 19.86C9.37 19.6 10.22 18.95 10.74 18.05C10.8 17.95 10.86 17.84 10.91 17.73C10.96 17.84 11.01 17.95 11.08 18.05C11.6 18.95 12.44 19.6 13.43 19.86C14.42 20.13 15.47 19.99 16.36 19.47C16.8 19.22 17.18 18.88 17.49 18.48C17.8 18.08 18.03 17.62 18.16 17.12C18.29 16.63 18.33 16.11 18.26 15.61C18.2 15.1 18.03 14.61 17.78 14.17C17.72 14.06 17.65 13.96 17.58 13.86C17.7 13.87 17.82 13.88 17.94 13.88C18.96 13.88 19.95 13.48 20.67 12.75C21.4 12.02 21.81 11.03 21.81 10ZM10.91 13.21C10.28 13.21 9.67 13.02 9.15 12.67C8.63 12.31 8.22 11.81 7.98 11.23C7.74 10.64 7.68 9.99 7.8 9.37C7.93 8.74 8.23 8.17 8.67 7.72C9.11 7.27 9.68 6.97 10.29 6.84C10.9 6.72 11.54 6.78 12.12 7.03C12.7 7.27 13.19 7.68 13.54 8.21C13.89 8.74 14.07 9.36 14.07 10C14.07 10.85 13.74 11.67 13.15 12.27C12.55 12.87 11.75 13.21 10.91 13.21Z" fill="#6069FF" fill-opacity="1.000000" fill-rule="nonzero"/>
</svg>
