<svg width="268.000000" height="279.000000" viewBox="0 0 268 279" fill="none" xmlns="http://www.w3.org/2000/svg" xmlns:xlink="http://www.w3.org/1999/xlink">
	<desc>
			Created with Pixso.
	</desc>
	<defs/>
	<g opacity="0.500000">
		<path id="Rectangle 2" d="M23.76 0L178.88 0C186.5 0 190.3 0 193.29 1.94C193.37 1.99 193.45 2.04 193.53 2.1C196.47 4.11 197.92 7.63 200.83 14.67L208.42 33.01C211.33 40.05 212.79 43.57 215.73 45.59C215.81 45.64 215.88 45.69 215.96 45.75C218.95 47.69 222.76 47.69 230.38 47.69L244.24 47.69C255.32 47.69 260.86 47.69 264.35 51.07C264.44 51.16 264.53 51.25 264.61 51.34C268 54.83 268 60.37 268 71.45L268 255.24C268 266.32 268 271.86 264.61 275.35C264.53 275.44 264.44 275.53 264.35 275.61C260.86 279 255.32 279 244.24 279L23.76 279C12.67 279 7.13 279 3.64 275.61C3.55 275.53 3.46 275.44 3.38 275.35C0 271.85 0 266.32 0 255.24L0 23.75C0 12.67 0 7.13 3.38 3.64C3.46 3.55 3.55 3.46 3.64 3.38C7.13 0 12.67 0 23.76 0Z" fill="#403586" fill-opacity="1.000000" fill-rule="nonzero"/>
		<path id="Rectangle 2" d="" fill="#505499" fill-opacity="0" fill-rule="evenodd"/>
	</g>
</svg>
