<svg width="370.964844" height="197.150513" viewBox="0 0 370.965 197.151" fill="none" xmlns="http://www.w3.org/2000/svg" xmlns:xlink="http://www.w3.org/1999/xlink">
	<desc>
			Created with Pixso.
	</desc>
	<defs>
		<linearGradient x1="185.482391" y1="-25.715271" x2="370.964752" y2="225.008698" id="paint_linear_44_1415_0" gradientUnits="userSpaceOnUse">
			<stop stop-color="#646BFF"/>
			<stop offset="1.000000" stop-color="#5764FF"/>
		</linearGradient>
	</defs>
	<rect id="Rectangle 96" rx="9.656350" width="370.964783" height="197.150482" fill="url(#paint_linear_44_1415_0)" fill-opacity="1.000000"/>
	<path id="Vector" d="M171.86 65.98L210.09 65.98C213.6 65.98 216.46 68.84 216.46 72.34L216.46 100.34C216.46 103.84 213.6 106.7 210.09 106.7L171.86 106.7C168.35 106.7 165.49 103.84 165.49 100.34L165.49 72.34C165.49 68.84 168.35 65.98 171.86 65.98ZM210.09 71.07L171.86 71.07C171.16 71.07 170.59 71.64 170.59 72.34L170.59 96.36L177.62 89.34C179.36 87.6 182.2 87.6 183.94 89.34L187.03 92.41L196.49 81.07C197.34 80.06 198.58 79.47 199.9 79.46C201.22 79.49 202.46 80.03 203.31 81.03L211.36 90.41L211.36 72.34C211.36 71.64 210.79 71.07 210.09 71.07ZM178.24 83.79C181.05 83.79 183.33 81.51 183.33 78.7C183.33 75.9 181.05 73.61 178.24 73.61C175.43 73.61 173.14 75.9 173.14 78.7C173.14 81.51 175.43 83.79 178.24 83.79ZM171.23 110.52C167.15 110.52 163.52 107.91 162.2 104.02L162.11 103.73C161.8 102.7 161.67 101.84 161.67 100.97L161.67 83.62L155.49 104.23C154.69 107.26 156.5 110.4 159.55 111.24L198.95 121.78C199.44 121.91 199.93 121.97 200.42 121.97C202.96 121.97 205.27 120.29 205.93 117.81L208.22 110.52L171.23 110.52Z" fill="#FFFFFF" fill-opacity="1.000000" fill-rule="evenodd"/>
</svg>
