<svg width="467.000000" height="279.000000" viewBox="0 0 467 279" fill="none" xmlns="http://www.w3.org/2000/svg" xmlns:xlink="http://www.w3.org/1999/xlink">
	<desc>
			Created with Pixso.
	</desc>
	<defs/>
	<path id="Rectangle 2" d="M23.75 0L316.85 0C322.64 0 325.53 0 328.02 1.22C328.09 1.25 328.16 1.28 328.22 1.32C330.7 2.59 332.43 4.9 335.89 9.54L344.41 20.95C347.87 25.59 349.6 27.9 352.08 29.17C352.14 29.21 352.21 29.24 352.28 29.27C354.77 30.5 357.67 30.5 363.45 30.5L443.24 30.5C454.32 30.5 459.86 30.5 463.35 33.88C463.44 33.96 463.53 34.05 463.61 34.14C467 37.63 467 43.17 467 54.25L467 255.24C467 266.32 467 271.86 463.61 275.35C463.53 275.44 463.44 275.53 463.35 275.61C459.86 279 454.32 279 443.24 279L23.75 279C12.67 279 7.13 279 3.64 275.61C3.55 275.53 3.46 275.44 3.38 275.35C0 271.85 0 266.32 0 255.24L0 23.75C0 12.67 0 7.13 3.38 3.64C3.46 3.55 3.55 3.46 3.64 3.38C7.13 0 12.67 0 23.75 0Z" fill="#332E71" fill-opacity="1.000000" fill-rule="nonzero"/>
	<path id="Rectangle 2" d="" fill="#505499" fill-opacity="0" fill-rule="evenodd"/>
</svg>
