<svg width="370.964844" height="197.150513" viewBox="0 0 370.965 197.151" fill="none" xmlns="http://www.w3.org/2000/svg" xmlns:xlink="http://www.w3.org/1999/xlink">
	<desc>
			Created with Pixso.
	</desc>
	<defs>
		<linearGradient x1="185.482391" y1="-25.715271" x2="370.964752" y2="225.008698" id="paint_linear_44_1407_0" gradientUnits="userSpaceOnUse">
			<stop stop-color="#646BFF"/>
			<stop offset="1.000000" stop-color="#5764FF"/>
		</linearGradient>
	</defs>
	<rect id="Rectangle 95" rx="9.656350" width="370.964783" height="197.150482" fill="url(#paint_linear_44_1407_0)" fill-opacity="1.000000"/>
	<path id="Vector" d="M185.57 57.13C168.71 57.13 155 70.85 155 87.71C155 104.57 168.71 118.29 185.57 118.29C202.44 118.29 216.15 104.57 216.15 87.71C216.15 70.85 202.44 57.13 185.57 57.13ZM197.73 88.78L179.89 100.25C179.68 100.38 179.44 100.45 179.2 100.45C178.99 100.45 178.78 100.4 178.59 100.29C178.18 100.07 177.93 99.64 177.93 99.17L177.93 76.24C177.93 75.77 178.18 75.35 178.59 75.12C179 74.9 179.5 74.91 179.89 75.17L197.73 86.64C198.09 86.87 198.31 87.27 198.31 87.71C198.31 88.14 198.09 88.54 197.73 88.78Z" fill="#FCFCFD" fill-opacity="1.000000" fill-rule="nonzero"/>
	<path id="Vector" d="M348.1 166.61C347.95 166.54 347.77 166.56 347.63 166.67L343.33 170.15L341.27 170.15C340.78 170.15 340.38 170.55 340.38 171.05L340.38 174.63C340.38 175.13 340.78 175.53 341.27 175.53L343.33 175.53L347.63 179.02C347.71 179.08 347.81 179.11 347.91 179.11C347.97 179.11 348.04 179.1 348.1 179.07C348.25 178.99 348.35 178.84 348.35 178.66L348.35 167.02C348.35 166.84 348.25 166.69 348.1 166.61ZM351.22 168.41C351.39 168.24 351.67 168.23 351.84 168.41C353.02 169.59 353.67 171.16 353.67 172.84C353.67 174.52 353.02 176.09 351.84 177.27C351.76 177.36 351.64 177.4 351.53 177.4C351.42 177.4 351.3 177.36 351.22 177.27C351.04 177.09 351.05 176.81 351.22 176.63C352.23 175.62 352.78 174.28 352.78 172.84C352.78 171.4 352.23 170.06 351.22 169.05C351.05 168.87 351.04 168.59 351.22 168.41ZM350.59 169.67C350.42 169.5 350.14 169.5 349.97 169.68C349.8 169.85 349.8 170.14 349.97 170.31C350.64 170.98 351.01 171.88 351.01 172.84C351.01 173.8 350.64 174.7 349.97 175.37C349.8 175.54 349.8 175.83 349.97 176C350.05 176.09 350.17 176.14 350.28 176.14C350.39 176.14 350.51 176.09 350.59 176.01C351.43 175.17 351.89 174.05 351.89 172.84C351.89 171.64 351.43 170.51 350.59 169.67Z" fill="#FFFFFF" fill-opacity="1.000000" fill-rule="evenodd"/>
	<g opacity="0.400000">
		<rect id="Rectangle 4526" x="112.197266" y="171.314209" rx="1.190697" width="217.727386" height="2.381393" fill="#FFFFFF" fill-opacity="1.000000"/>
	</g>
	<rect id="Rectangle 4527" x="111.993164" y="170.999512" rx="1.660408" width="32.839169" height="3.320815" fill="#FCFCFD" fill-opacity="1.000000"/>
	<path id="00:00 / 01:00" d="M70.26 176.26Q70.29 176.26 70.31 176.26L70.65 176.26Q70.75 176.26 70.8 176.22Q70.81 176.21 70.81 176.2Q70.87 176.15 70.89 176.1L73.92 168.84Q73.94 168.77 73.94 168.74Q73.94 168.71 73.93 168.69Q73.92 168.65 73.89 168.61Q73.86 168.58 73.82 168.57Q73.79 168.56 73.76 168.56L73.42 168.56Q73.31 168.56 73.26 168.61Q73.26 168.61 73.26 168.61Q73.21 168.67 73.19 168.72L70.16 175.98Q70.13 176.04 70.13 176.09Q70.13 176.12 70.14 176.14Q70.15 176.18 70.19 176.21Q70.22 176.25 70.26 176.26ZM44.75 175.42Q45.17 175.61 45.78 175.61Q46.4 175.61 46.82 175.42Q47.18 175.25 47.42 174.99Q47.46 174.94 47.5 174.89Q47.52 174.86 47.54 174.84Q47.77 174.52 47.89 174.12Q48.02 173.69 48.03 173.2Q48.04 172.96 48.04 172.69Q48.05 172.43 48.04 172.16Q48.04 171.88 48.03 171.63Q48.02 171.15 47.89 170.71Q47.77 170.31 47.54 170Q47.52 169.97 47.5 169.95Q47.46 169.9 47.42 169.86Q47.17 169.59 46.81 169.42Q46.39 169.23 45.78 169.23Q45.18 169.23 44.76 169.42Q44.4 169.58 44.16 169.85Q44.11 169.9 44.07 169.95Q44.05 169.97 44.04 169.99Q43.8 170.3 43.68 170.71Q43.55 171.15 43.54 171.63Q43.53 171.88 43.53 172.16Q43.52 172.43 43.53 172.69Q43.53 172.96 43.54 173.2Q43.56 173.69 43.68 174.12Q43.77 174.47 43.97 174.76Q44.01 174.83 44.06 174.89Q44.11 174.95 44.16 175Q44.4 175.26 44.75 175.42ZM50.37 175.42Q50.79 175.61 51.4 175.61Q52.02 175.61 52.44 175.42Q52.8 175.25 53.05 174.99Q53.09 174.94 53.13 174.89Q53.15 174.86 53.17 174.84Q53.4 174.52 53.51 174.12Q53.64 173.69 53.65 173.2Q53.66 172.96 53.67 172.69Q53.67 172.43 53.67 172.16Q53.66 171.88 53.65 171.63Q53.64 171.15 53.51 170.71Q53.4 170.31 53.16 170Q53.14 169.97 53.12 169.95Q53.08 169.9 53.05 169.86Q52.8 169.59 52.43 169.42Q52.01 169.23 51.4 169.23Q50.8 169.23 50.38 169.42Q50.02 169.58 49.78 169.85Q49.73 169.9 49.69 169.95Q49.68 169.97 49.66 169.99Q49.42 170.3 49.3 170.71Q49.17 171.15 49.16 171.63Q49.15 171.88 49.15 172.16Q49.15 172.43 49.15 172.69Q49.15 172.96 49.16 173.2Q49.18 173.69 49.3 174.12Q49.4 174.47 49.59 174.76Q49.64 174.83 49.69 174.89Q49.73 174.95 49.78 175Q50.02 175.26 50.37 175.42ZM58.26 175.42Q58.68 175.61 59.29 175.61Q59.91 175.61 60.33 175.42Q60.69 175.25 60.94 174.99Q60.98 174.94 61.02 174.89Q61.04 174.86 61.06 174.84Q61.29 174.52 61.4 174.12Q61.53 173.69 61.54 173.2Q61.55 172.96 61.56 172.69Q61.56 172.43 61.56 172.16Q61.55 171.88 61.54 171.63Q61.53 171.15 61.4 170.71Q61.29 170.31 61.05 170Q61.03 169.97 61.01 169.95Q60.97 169.9 60.94 169.86Q60.69 169.59 60.32 169.42Q59.9 169.23 59.29 169.23Q58.69 169.23 58.27 169.42Q57.91 169.58 57.67 169.85Q57.63 169.9 57.58 169.95Q57.57 169.97 57.55 169.99Q57.31 170.3 57.19 170.71Q57.06 171.15 57.05 171.63Q57.04 171.88 57.04 172.16Q57.04 172.43 57.04 172.69Q57.04 172.96 57.05 173.2Q57.07 173.69 57.19 174.12Q57.29 174.47 57.48 174.76Q57.53 174.83 57.58 174.89Q57.62 174.95 57.67 175Q57.91 175.26 58.26 175.42ZM63.88 175.42Q64.31 175.61 64.92 175.61Q65.54 175.61 65.96 175.42Q66.32 175.25 66.56 174.99Q66.6 174.94 66.64 174.89Q66.66 174.86 66.68 174.84Q66.91 174.52 67.03 174.12Q67.16 173.69 67.17 173.2Q67.18 172.96 67.18 172.69Q67.18 172.43 67.18 172.16Q67.18 171.88 67.17 171.63Q67.16 171.15 67.03 170.71Q66.91 170.31 66.68 170Q66.66 169.97 66.63 169.95Q66.6 169.9 66.56 169.86Q66.31 169.59 65.95 169.42Q65.53 169.23 64.92 169.23Q64.31 169.23 63.89 169.42Q63.54 169.58 63.29 169.85Q63.25 169.9 63.21 169.95Q63.19 169.97 63.17 169.99Q62.93 170.3 62.81 170.71Q62.68 171.15 62.68 171.63Q62.67 171.88 62.66 172.16Q62.66 172.43 62.66 172.69Q62.67 172.96 62.68 173.2Q62.69 173.69 62.81 174.12Q62.91 174.47 63.1 174.76Q63.15 174.83 63.2 174.89Q63.25 174.95 63.3 175Q63.54 175.26 63.88 175.42ZM78.12 175.42Q78.54 175.61 79.15 175.61Q79.77 175.61 80.19 175.42Q80.55 175.25 80.79 174.99Q80.83 174.94 80.87 174.89Q80.89 174.86 80.91 174.84Q81.14 174.52 81.26 174.12Q81.39 173.69 81.4 173.2Q81.41 172.96 81.41 172.69Q81.41 172.43 81.41 172.16Q81.41 171.88 81.4 171.63Q81.39 171.15 81.26 170.71Q81.14 170.31 80.91 170Q80.89 169.97 80.87 169.95Q80.83 169.9 80.79 169.86Q80.54 169.59 80.18 169.42Q79.76 169.23 79.15 169.23Q78.55 169.23 78.12 169.42Q77.77 169.58 77.52 169.85Q77.48 169.9 77.44 169.95Q77.42 169.97 77.4 169.99Q77.16 170.3 77.04 170.71Q76.92 171.15 76.91 171.63Q76.9 171.88 76.89 172.16Q76.89 172.43 76.89 172.69Q76.9 172.96 76.91 173.2Q76.92 173.69 77.04 174.12Q77.14 174.47 77.34 174.76Q77.38 174.83 77.43 174.89Q77.48 174.95 77.53 175Q77.77 175.26 78.12 175.42ZM89.8 175.42Q90.22 175.61 90.83 175.61Q91.45 175.61 91.87 175.42Q92.23 175.25 92.47 174.99Q92.51 174.94 92.55 174.89Q92.57 174.86 92.59 174.84Q92.82 174.52 92.94 174.12Q93.07 173.69 93.08 173.2Q93.09 172.96 93.09 172.69Q93.09 172.43 93.09 172.16Q93.09 171.88 93.08 171.63Q93.07 171.15 92.94 170.71Q92.82 170.31 92.59 170Q92.57 169.97 92.55 169.95Q92.51 169.9 92.47 169.86Q92.22 169.59 91.86 169.42Q91.44 169.23 90.83 169.23Q90.23 169.23 89.8 169.42Q89.45 169.58 89.2 169.85Q89.16 169.9 89.12 169.95Q89.1 169.97 89.09 169.99Q88.84 170.3 88.72 170.71Q88.6 171.15 88.59 171.63Q88.58 171.88 88.57 172.16Q88.57 172.43 88.57 172.69Q88.58 172.96 88.59 173.2Q88.6 173.69 88.72 174.12Q88.82 174.47 89.02 174.76Q89.06 174.83 89.11 174.89Q89.16 174.95 89.21 175Q89.45 175.26 89.8 175.42ZM95.42 175.42Q95.84 175.61 96.45 175.61Q97.07 175.61 97.49 175.42Q97.85 175.25 98.09 174.99Q98.14 174.94 98.17 174.89Q98.19 174.86 98.22 174.84Q98.45 174.52 98.56 174.12Q98.69 173.69 98.7 173.2Q98.71 172.96 98.71 172.69Q98.72 172.43 98.71 172.16Q98.71 171.88 98.7 171.63Q98.69 171.15 98.56 170.71Q98.45 170.31 98.21 170Q98.19 169.97 98.17 169.95Q98.13 169.9 98.09 169.86Q97.85 169.59 97.48 169.42Q97.06 169.23 96.45 169.23Q95.85 169.23 95.43 169.42Q95.07 169.58 94.83 169.85Q94.78 169.9 94.74 169.95Q94.73 169.97 94.71 169.99Q94.47 170.3 94.35 170.71Q94.22 171.15 94.21 171.63Q94.2 171.88 94.2 172.16Q94.19 172.43 94.2 172.69Q94.2 172.96 94.21 173.2Q94.23 173.69 94.35 174.12Q94.45 174.47 94.64 174.76Q94.68 174.83 94.73 174.89Q94.78 174.95 94.83 175Q95.07 175.26 95.42 175.42ZM84.31 175.5Q84.35 175.52 84.41 175.52L84.88 175.52Q84.94 175.52 84.98 175.49Q85 175.48 85.02 175.46Q85.04 175.44 85.06 175.41Q85.08 175.37 85.08 175.32L85.08 169.52Q85.08 169.47 85.06 169.42Q85.04 169.4 85.02 169.38Q85 169.36 84.98 169.35Q84.94 169.32 84.88 169.32L84.43 169.32Q84.36 169.32 84.31 169.33Q84.26 169.34 84.19 169.38L82.26 170.87Q82.22 170.9 82.2 170.95Q82.18 170.97 82.18 171Q82.18 171.02 82.18 171.03Q82.18 171.1 82.22 171.16L82.45 171.45Q82.49 171.5 82.53 171.52Q82.56 171.53 82.58 171.53Q82.61 171.54 82.64 171.53Q82.69 171.52 82.73 171.49L84.2 170.36L84.2 175.32Q84.2 175.37 84.23 175.41Q84.24 175.44 84.26 175.46Q84.28 175.48 84.31 175.5ZM46.61 174.6Q46.3 174.85 45.78 174.85Q45.3 174.85 44.99 174.62Q44.87 174.53 44.77 174.4Q44.43 173.94 44.42 173.15Q44.42 172.9 44.41 172.65Q44.41 172.41 44.41 172.17Q44.42 171.92 44.42 171.68Q44.43 170.91 44.77 170.45Q44.86 170.31 44.99 170.21Q45.3 169.98 45.78 169.98Q46.28 169.98 46.59 170.23Q46.71 170.32 46.8 170.45Q47.13 170.91 47.14 171.68Q47.16 171.92 47.16 172.17L47.16 172.65Q47.16 172.9 47.14 173.15Q47.13 173.94 46.8 174.4Q46.72 174.51 46.61 174.6ZM52.23 174.6Q51.92 174.85 51.4 174.85Q50.92 174.85 50.61 174.62Q50.49 174.53 50.39 174.4Q50.06 173.94 50.04 173.15Q50.04 172.9 50.04 172.65Q50.03 172.41 50.04 172.17Q50.04 171.92 50.04 171.68Q50.06 170.91 50.39 170.45Q50.49 170.31 50.62 170.21Q50.92 169.98 51.4 169.98Q51.9 169.98 52.21 170.23Q52.33 170.32 52.42 170.45Q52.76 170.91 52.77 171.68Q52.78 171.92 52.78 172.17L52.78 172.65Q52.78 172.9 52.77 173.15Q52.76 173.94 52.42 174.4Q52.34 174.51 52.23 174.6ZM60.12 174.6Q59.81 174.85 59.29 174.85Q58.81 174.85 58.51 174.62Q58.38 174.53 58.28 174.4Q57.95 173.94 57.93 173.15Q57.93 172.9 57.93 172.65Q57.92 172.41 57.93 172.17Q57.93 171.92 57.93 171.68Q57.95 170.91 58.28 170.45Q58.38 170.31 58.51 170.21Q58.81 169.98 59.29 169.98Q59.79 169.98 60.1 170.23Q60.22 170.32 60.32 170.45Q60.65 170.91 60.66 171.68Q60.67 171.92 60.67 172.17L60.67 172.65Q60.67 172.9 60.66 173.15Q60.65 173.94 60.32 174.4Q60.23 174.51 60.12 174.6ZM65.75 174.6Q65.43 174.85 64.92 174.85Q64.44 174.85 64.13 174.62Q64 174.53 63.91 174.4Q63.57 173.94 63.55 173.15Q63.55 172.9 63.55 172.65Q63.55 172.41 63.55 172.17Q63.55 171.92 63.55 171.68Q63.57 170.91 63.9 170.45Q64 170.31 64.13 170.21Q64.44 169.98 64.92 169.98Q65.41 169.98 65.73 170.23Q65.85 170.32 65.94 170.45Q66.27 170.91 66.28 171.68Q66.3 171.92 66.3 172.17L66.3 172.65Q66.3 172.9 66.28 173.15Q66.27 173.94 65.94 174.4Q65.85 174.51 65.75 174.6ZM79.98 174.6Q79.66 174.85 79.15 174.85Q78.67 174.85 78.36 174.62Q78.23 174.53 78.14 174.4Q77.8 173.94 77.78 173.15Q77.78 172.9 77.78 172.65Q77.78 172.41 77.78 172.17Q77.78 171.92 77.78 171.68Q77.8 170.91 78.13 170.45Q78.23 170.31 78.36 170.21Q78.67 169.98 79.15 169.98Q79.65 169.98 79.96 170.23Q80.08 170.32 80.17 170.45Q80.5 170.91 80.51 171.68Q80.53 171.92 80.53 172.17L80.53 172.65Q80.53 172.9 80.51 173.15Q80.5 173.94 80.17 174.4Q80.09 174.51 79.98 174.6ZM91.66 174.6Q91.34 174.85 90.83 174.85Q90.35 174.85 90.04 174.62Q89.91 174.53 89.82 174.4Q89.48 173.94 89.46 173.15Q89.46 172.9 89.46 172.65Q89.46 172.41 89.46 172.17Q89.46 171.92 89.46 171.68Q89.48 170.91 89.81 170.45Q89.91 170.31 90.04 170.21Q90.35 169.98 90.83 169.98Q91.33 169.98 91.64 170.23Q91.76 170.32 91.85 170.45Q92.18 170.91 92.19 171.68Q92.21 171.92 92.21 172.17L92.21 172.65Q92.21 172.9 92.19 173.15Q92.18 173.94 91.85 174.4Q91.77 174.51 91.66 174.6ZM97.28 174.6Q96.97 174.85 96.45 174.85Q95.97 174.85 95.66 174.62Q95.54 174.53 95.44 174.4Q95.11 173.94 95.09 173.15Q95.09 172.9 95.08 172.65Q95.08 172.41 95.08 172.17Q95.09 171.92 95.09 171.68Q95.11 170.91 95.44 170.45Q95.54 170.31 95.66 170.21Q95.97 169.98 96.45 169.98Q96.95 169.98 97.26 170.23Q97.38 170.32 97.47 170.45Q97.81 170.91 97.81 171.68Q97.83 171.92 97.83 172.17L97.83 172.65Q97.83 172.9 97.81 173.15Q97.81 173.94 97.47 174.4Q97.39 174.51 97.28 174.6ZM54.93 172.39Q54.98 172.42 55.03 172.42L55.67 172.42Q55.73 172.42 55.78 172.39Q55.8 172.38 55.82 172.36Q55.84 172.34 55.85 172.31Q55.88 172.27 55.88 172.22L55.88 171.6Q55.88 171.55 55.86 171.5Q55.84 171.48 55.82 171.45Q55.8 171.43 55.77 171.42Q55.73 171.39 55.67 171.39L55.03 171.39Q54.98 171.39 54.94 171.41Q54.91 171.43 54.89 171.45Q54.87 171.47 54.85 171.5Q54.83 171.54 54.83 171.6L54.83 172.22Q54.83 172.27 54.86 172.32Q54.87 172.34 54.89 172.36Q54.91 172.38 54.93 172.39ZM86.47 172.39Q86.51 172.42 86.57 172.42L87.21 172.42Q87.27 172.42 87.31 172.39Q87.33 172.38 87.35 172.36Q87.37 172.34 87.39 172.31Q87.41 172.27 87.41 172.22L87.41 171.6Q87.41 171.55 87.39 171.5Q87.38 171.48 87.35 171.45Q87.33 171.43 87.31 171.42Q87.26 171.39 87.21 171.39L86.57 171.39Q86.51 171.39 86.47 171.41Q86.44 171.43 86.42 171.45Q86.4 171.47 86.39 171.5Q86.37 171.54 86.37 171.6L86.37 172.22Q86.37 172.27 86.39 172.32Q86.4 172.34 86.42 172.36Q86.44 172.38 86.47 172.39ZM54.93 175.5Q54.98 175.52 55.03 175.52L55.67 175.52Q55.73 175.52 55.78 175.49Q55.8 175.48 55.82 175.46Q55.84 175.44 55.85 175.41Q55.88 175.37 55.88 175.32L55.88 174.7Q55.88 174.64 55.85 174.59Q55.84 174.57 55.82 174.55Q55.8 174.53 55.77 174.52Q55.73 174.49 55.67 174.49L55.03 174.49Q54.98 174.49 54.94 174.51Q54.91 174.53 54.89 174.55Q54.87 174.57 54.86 174.59Q54.83 174.64 54.83 174.7L54.83 175.32Q54.83 175.37 54.86 175.42Q54.87 175.44 54.89 175.46Q54.91 175.48 54.93 175.5ZM86.47 175.5Q86.51 175.52 86.57 175.52L87.21 175.52Q87.27 175.52 87.31 175.49Q87.33 175.48 87.35 175.46Q87.37 175.44 87.39 175.41Q87.41 175.37 87.41 175.32L87.41 174.7Q87.41 174.64 87.39 174.59Q87.37 174.57 87.35 174.55Q87.33 174.53 87.31 174.52Q87.26 174.49 87.21 174.49L86.57 174.49Q86.51 174.49 86.47 174.51Q86.44 174.53 86.42 174.55Q86.4 174.57 86.39 174.59Q86.37 174.64 86.37 174.7L86.37 175.32Q86.37 175.37 86.39 175.42Q86.4 175.44 86.42 175.46Q86.44 175.48 86.47 175.5Z" fill="#FFFFFF" fill-opacity="1.000000" fill-rule="evenodd"/>
	<path id="Vector" d="M29.33 171.77L22.33 167.87C22.11 167.74 21.85 167.67 21.58 167.67C21.32 167.68 21.06 167.75 20.84 167.88C20.62 168 20.43 168.19 20.31 168.4C20.18 168.62 20.11 168.87 20.11 169.12L20.11 176.93C20.11 177.18 20.18 177.43 20.31 177.65C20.43 177.86 20.62 178.04 20.84 178.17C21.06 178.3 21.32 178.37 21.58 178.37C21.85 178.38 22.11 178.31 22.33 178.18L29.33 174.28C29.56 174.15 29.74 173.97 29.87 173.75C30.01 173.53 30.08 173.28 30.08 173.02C30.08 172.77 30.01 172.52 29.87 172.3C29.74 172.08 29.56 171.9 29.33 171.77Z" fill="#FCFCFD" fill-opacity="1.000000" fill-rule="nonzero"/>
</svg>
