<svg width="171.126953" height="44.000000" viewBox="0 0 171.127 44" fill="none" xmlns="http://www.w3.org/2000/svg" xmlns:xlink="http://www.w3.org/1999/xlink">
	<desc>
			Created with Pixso.
	</desc>
	<defs/>
	<path id="Vector" d="M22 0C9.86 0 0 9.86 0 22L0 42.62C0 43.38 0.61 44 1.37 44L22 44C34.13 44 44 34.13 44 22C44 9.86 34.13 0 22 0ZM23.37 27.5L12.37 27.5C11.61 27.5 11 26.88 11 26.12C11 25.36 11.61 24.75 12.37 24.75L23.37 24.75C24.13 24.75 24.75 25.36 24.75 26.12C24.75 26.88 24.13 27.5 23.37 27.5ZM31.62 19.25L12.37 19.25C11.61 19.25 11 18.63 11 17.87C11 17.11 11.61 16.5 12.37 16.5L31.62 16.5C32.38 16.5 33 17.11 33 17.87C33 18.63 32.38 19.25 31.62 19.25Z" fill="#616AFF" fill-opacity="1.000000" fill-rule="nonzero"/>
	<path id="AskME" d="M123.03 35.95Q123.17 36 123.31 36L127.64 36Q127.89 36 128.09 35.89Q128.19 35.83 128.28 35.73Q128.42 35.58 128.49 35.4Q128.53 35.26 128.53 35.1L128.53 21.6L132.6 29.12Q132.63 29.17 132.66 29.22Q132.83 29.49 133.07 29.7Q133.36 29.95 133.86 29.95L135.73 29.95Q136.24 29.95 136.52 29.7Q136.75 29.5 136.92 29.26Q136.96 29.19 137 29.12L141.02 21.6L141.02 35.1Q141.02 35.24 141.07 35.36Q141.13 35.56 141.3 35.73Q141.41 35.84 141.55 35.91Q141.74 36 141.96 36L146.25 36Q146.47 36 146.66 35.91Q146.8 35.84 146.91 35.73Q147.08 35.56 147.14 35.36Q147.19 35.24 147.19 35.1L147.19 11.69Q147.19 11.45 147.08 11.27Q147.02 11.15 146.91 11.05Q146.81 10.95 146.68 10.89Q146.49 10.8 146.25 10.8L142.39 10.8Q141.78 10.8 141.51 11.1L141.51 11.1Q141.24 11.4 141.14 11.59L134.8 22.93L128.46 11.59Q128.39 11.4 128.1 11.1L128.1 11.1Q127.81 10.8 127.2 10.8L123.31 10.8Q123.16 10.8 123.02 10.85Q122.84 10.91 122.68 11.05Q122.59 11.14 122.53 11.25Q122.42 11.44 122.42 11.69L122.42 35.1Q122.42 35.25 122.46 35.38Q122.53 35.57 122.68 35.73Q122.84 35.89 123.03 35.95ZM152.68 35.89Q152.88 36 153.12 36L170.23 36Q170.48 36 170.67 35.89Q170.78 35.83 170.87 35.73Q171.01 35.58 171.07 35.4Q171.12 35.26 171.12 35.1L171.12 31.71Q171.12 31.46 171.01 31.26Q170.96 31.15 170.87 31.06Q170.79 30.98 170.69 30.93Q170.49 30.81 170.23 30.81L158.45 30.81L158.45 25.81L169.14 25.81Q169.39 25.81 169.57 25.71Q169.69 25.64 169.79 25.54Q169.93 25.38 169.99 25.2Q170.04 25.06 170.04 24.9L170.04 21.77Q170.04 21.52 169.94 21.33Q169.88 21.21 169.79 21.12Q169.69 21.01 169.57 20.94Q169.39 20.84 169.14 20.84L158.45 20.84L158.45 15.98L169.94 15.98Q170.2 15.98 170.4 15.87Q170.5 15.81 170.58 15.73Q170.67 15.64 170.72 15.54Q170.83 15.34 170.83 15.08L170.83 11.69Q170.83 11.43 170.72 11.23Q170.66 11.13 170.58 11.05Q170.5 10.97 170.4 10.91Q170.2 10.8 169.94 10.8L153.12 10.8Q152.86 10.8 152.66 10.91Q152.56 10.96 152.47 11.05Q152.4 11.12 152.35 11.21Q152.23 11.41 152.23 11.69L152.23 35.1Q152.23 35.27 152.28 35.41Q152.34 35.59 152.47 35.73Q152.57 35.83 152.68 35.89Z" fill="#1F2A3B" fill-opacity="1.000000" fill-rule="evenodd"/>
	<path id="AskME" d="M103.02 35.93Q103.18 36 103.37 36L106.29 36Q106.59 36 106.79 35.86Q106.86 35.81 106.92 35.75Q107.02 35.64 107.08 35.51Q107.15 35.34 107.15 35.13L107.15 28.15L114.03 35.38Q114.35 35.67 114.58 35.84Q114.82 36 115.36 36L118.78 36Q118.97 36 119.13 35.92Q119.24 35.87 119.33 35.78Q119.41 35.71 119.47 35.62Q119.57 35.44 119.57 35.2Q119.57 34.95 119.21 34.59L110.9 25.66L118.32 18.72Q118.53 18.58 118.6 18.4Q118.68 18.21 118.68 18.07Q118.68 17.79 118.55 17.6Q118.51 17.54 118.46 17.49Q118.4 17.44 118.33 17.4Q118.14 17.27 117.88 17.27L114.53 17.27Q114.03 17.27 113.79 17.44Q113.56 17.6 113.2 17.89L107.15 23.61L107.15 11.3Q107.15 11.08 107.07 10.91Q107.01 10.79 106.92 10.69Q106.85 10.62 106.77 10.57Q106.57 10.44 106.29 10.44L103.37 10.44Q103.19 10.44 103.04 10.5Q102.89 10.56 102.76 10.69Q102.64 10.81 102.57 10.95Q102.5 11.11 102.5 11.3L102.5 35.13Q102.5 35.31 102.57 35.47Q102.63 35.62 102.76 35.75Q102.88 35.86 103.02 35.93ZM57.11 35.98Q57.18 36 57.25 36L60.39 36Q60.89 36 61.12 35.77Q61.36 35.53 61.43 35.31L63.12 30.91L73.82 30.91L75.51 35.31Q75.58 35.53 75.81 35.77Q76.04 36 76.55 36L79.68 36Q79.81 36 79.93 35.95Q80.07 35.9 80.18 35.78Q80.28 35.69 80.33 35.58Q80.4 35.43 80.4 35.24Q80.4 35.1 80.37 34.91L71.69 11.69Q71.62 11.52 71.52 11.37Q71.41 11.21 71.25 11.07L71.25 11.07Q70.97 10.8 70.43 10.8L66.51 10.8Q65.99 10.8 65.68 11.05Q65.67 11.06 65.66 11.07Q65.44 11.26 65.32 11.51Q65.28 11.6 65.25 11.69L56.58 34.91Q56.5 35.1 56.5 35.24Q56.5 35.4 56.56 35.54Q56.62 35.68 56.73 35.78Q56.91 35.94 57.11 35.98ZM72.55 26.78L64.38 26.78L68.45 15.66L72.55 26.78ZM86.72 35.85Q88.25 36.36 90.41 36.36Q93.15 36.36 95 35.62Q96.85 34.88 97.81 33.59Q98.29 32.94 98.53 32.21Q98.77 31.48 98.77 30.67Q98.77 29.64 98.42 28.76Q98.31 28.49 98.17 28.23Q97.57 27.14 96.15 26.29Q94.73 25.45 92.32 25.02Q90.2 24.59 89.15 24.19Q88.11 23.79 87.76 23.34Q87.66 23.21 87.59 23.06Q87.42 22.71 87.42 22.28Q87.42 21.87 87.57 21.53Q87.74 21.11 88.14 20.79Q88.86 20.19 90.23 20.19Q91.31 20.19 91.97 20.48Q92.64 20.76 93.11 21.19Q93.58 21.6 93.98 21.96Q94.12 22.06 94.26 22.13Q94.29 22.15 94.31 22.16Q94.44 22.21 94.58 22.21L97.25 22.21Q97.38 22.21 97.5 22.17Q97.67 22.11 97.83 21.98Q97.91 21.9 97.96 21.8Q98.07 21.61 98.05 21.34Q98.01 20.8 97.5 20.07Q97 19.33 96.04 18.61Q95.09 17.89 93.65 17.41Q92.21 16.91 90.27 16.91Q87.78 16.91 86.1 17.75Q84.43 18.58 83.59 19.85Q82.96 20.8 82.8 21.82Q82.74 22.17 82.74 22.53Q82.74 23.91 83.34 24.96Q83.36 25.01 83.39 25.05Q84.04 26.13 85.36 26.85Q86.7 27.58 88.72 28.04Q90.77 28.47 91.89 28.85Q93 29.23 93.41 29.69Q93.47 29.76 93.52 29.83Q93.83 30.26 93.83 30.91Q93.83 31.37 93.64 31.74Q93.41 32.21 92.87 32.52Q91.92 33.08 90.52 33.08Q89.44 33.08 88.72 32.78Q88 32.47 87.47 32.04Q86.95 31.6 86.49 31.21Q86.3 31.03 86.2 30.99Q86.09 30.96 85.94 30.96L83.11 30.96Q83.01 30.96 82.92 30.98Q82.7 31.03 82.51 31.2Q82.41 31.28 82.35 31.39Q82.25 31.57 82.28 31.82Q82.31 32.32 82.78 33.08Q83.25 33.83 84.21 34.59Q85.19 35.34 86.72 35.85Z" fill="#384B67" fill-opacity="1.000000" fill-rule="evenodd"/>
</svg>
