<svg width="27.000000" height="18.000000" viewBox="0 0 27 18" fill="none" xmlns="http://www.w3.org/2000/svg" xmlns:xlink="http://www.w3.org/1999/xlink">
	<desc>
			Created with Pixso.
	</desc>
	<defs/>
	<path id="Vector" d="M25.01 0L1.98 0C0.89 0 0 0.87 0 1.95L0 16.04C0 17.12 0.89 18 1.98 18L25.01 18C26.1 18 27 17.12 27 16.04L27 1.95C27 0.87 26.1 0 25.01 0ZM8.3 11.72L10.98 11.72C11.3 11.72 11.56 11.97 11.56 12.29C11.56 12.6 11.3 12.86 10.98 12.86L8.3 12.86C7.98 12.86 7.72 12.6 7.72 12.29C7.72 11.97 7.98 11.72 8.3 11.72ZM2.51 5.97C2.51 5.65 2.77 5.39 3.09 5.39L6.57 5.39C6.89 5.39 7.16 5.65 7.16 5.97L7.16 8.45C7.16 8.77 6.89 9.02 6.57 9.02L3.09 9.02C2.77 9.02 2.51 8.77 2.51 8.45L2.51 5.97ZM3.09 11.72L5.77 11.72C6.09 11.72 6.35 11.97 6.35 12.29C6.35 12.6 6.09 12.86 5.77 12.86L3.09 12.86C2.77 12.86 2.51 12.6 2.51 12.29C2.51 11.97 2.77 11.72 3.09 11.72ZM12.65 15.41L3.09 15.41C2.77 15.41 2.51 15.15 2.51 14.84C2.51 14.52 2.77 14.26 3.09 14.26L12.65 14.26C12.97 14.26 13.23 14.52 13.23 14.84C13.23 15.15 12.97 15.41 12.65 15.41ZM16.19 12.86L13.51 12.86C13.19 12.86 12.93 12.6 12.93 12.29C12.93 11.97 13.19 11.72 13.51 11.72L16.19 11.72C16.51 11.72 16.77 11.97 16.77 12.29C16.77 12.6 16.51 12.86 16.19 12.86ZM21.4 12.86L18.72 12.86C18.4 12.86 18.14 12.6 18.14 12.29C18.14 11.97 18.4 11.72 18.72 11.72L21.4 11.72C21.72 11.72 21.98 11.97 21.98 12.29C21.98 12.6 21.72 12.86 21.4 12.86ZM23.9 4.49L17.58 4.49C17.26 4.49 17.01 4.23 17.01 3.92C17.01 3.6 17.26 3.35 17.58 3.35L23.9 3.35C24.22 3.35 24.48 3.6 24.48 3.92C24.48 4.23 24.22 4.49 23.9 4.49Z" fill="#5D67FF" fill-opacity="1.000000" fill-rule="nonzero"/>
</svg>
