<svg width="27.000000" height="24.000000" viewBox="0 0 27 24" fill="none" xmlns="http://www.w3.org/2000/svg" xmlns:xlink="http://www.w3.org/1999/xlink">
	<desc>
			Created with Pixso.
	</desc>
	<defs/>
	<path id="Vector" d="M24.92 1.74L26.96 13.35C27.16 14.5 26.4 15.59 25.25 15.8L23.17 16.16L23.17 10.39C23.17 8.35 21.52 6.69 19.48 6.69L3.46 6.69L3.26 5.57C3.06 4.42 3.82 3.33 4.97 3.12C4.97 3.12 22.73 0 22.85 0C23.85 0 24.74 0.72 24.92 1.74ZM0 10.28L21.59 10.28C21.53 9.16 20.61 8.27 19.48 8.27L2.1 8.27C0.97 8.27 0.05 9.16 0 10.28ZM21.59 11.87L0 11.87L0 15.46L21.59 15.46L21.59 11.87ZM0 17.04L21.59 17.04L21.59 21.88C21.59 23.05 20.65 24 19.48 24L2.1 24C0.94 24 0 23.05 0 21.88L0 17.04ZM2.68 22.09L6.27 22.09C6.7 22.09 7.06 21.74 7.06 21.3C7.06 20.86 6.7 20.51 6.27 20.51L2.68 20.51C2.25 20.51 1.89 20.86 1.89 21.3C1.89 21.74 2.25 22.09 2.68 22.09Z" fill="#5D67FF" fill-opacity="1.000000" fill-rule="evenodd"/>
</svg>
