<svg width="23.000000" height="28.000000" viewBox="0 0 23 28" fill="none" xmlns="http://www.w3.org/2000/svg" xmlns:xlink="http://www.w3.org/1999/xlink">
	<desc>
			Created with Pixso.
	</desc>
	<defs/>
	<path id="Vector" d="M11.62 8.38L18 4.93C18.8 4.5 19.79 4.83 20.21 5.67L21.54 8.38L21.36 8.38L11.62 8.38ZM0 24.17L15.31 24.17L15.31 25.25C15.31 26.77 14.14 28 12.69 28L2.61 28C1.17 28 0 26.77 0 25.25L0 24.17ZM5.81 25.96C5.81 26.21 6 26.41 6.24 26.41L9.07 26.41C9.3 26.41 9.5 26.21 9.5 25.96C9.5 25.71 9.3 25.5 9.07 25.5L6.24 25.5C6 25.5 5.81 25.71 5.81 25.96ZM21.36 9.28L10.34 9.28C10.12 9.28 9.85 9.34 9.65 9.45L9.65 9.45C9.07 9.75 8.71 10.32 8.71 11L8.71 19.04C8.71 19.98 9.44 20.75 10.34 20.75L21.36 20.75C22.26 20.75 23 19.98 23 19.04L23 17.49L15.26 17.49C13.97 17.49 12.91 16.38 12.91 15.02C12.91 13.66 13.97 12.55 15.26 12.55L23 12.55L23 11C23 10.05 22.26 9.28 21.36 9.28ZM10.34 21.66L15.31 21.66L15.31 23.26L0 23.26L0 2.74C0 1.22 1.17 0 2.61 0L12.69 0C14.14 0 15.31 1.22 15.31 2.74L15.31 5.37L9.26 8.64C8.4 9.07 7.85 9.99 7.85 11L7.85 19.04C7.85 20.48 8.97 21.66 10.34 21.66ZM3.72 1.99C3.72 1.74 3.53 1.54 3.29 1.54L2.99 1.54C2.75 1.54 2.56 1.75 2.56 1.99C2.56 2.24 2.75 2.45 2.99 2.45L3.29 2.45C3.53 2.45 3.72 2.24 3.72 1.99ZM6.24 2.45L9.07 2.45C9.3 2.45 9.5 2.24 9.5 1.99C9.5 1.74 9.3 1.54 9.07 1.54L6.24 1.54C6 1.54 5.81 1.74 5.81 1.99C5.81 2.24 6 2.45 6.24 2.45ZM13.78 15.02C13.78 15.88 14.44 16.58 15.26 16.58L23 16.58L23 13.46L15.26 13.46C14.44 13.46 13.78 14.16 13.78 15.02Z" fill="#5D67FF" fill-opacity="1.000000" fill-rule="nonzero"/>
</svg>
