<svg width="23.000000" height="23.000000" viewBox="0 0 23 23" fill="none" xmlns="http://www.w3.org/2000/svg" xmlns:xlink="http://www.w3.org/1999/xlink">
	<desc>
			Created with Pixso.
	</desc>
	<defs/>
	<path id="Vector" d="M0 7.14C0 6.13 0.8 5.3 1.8 5.3L19.55 5.3C20.54 5.3 21.35 6.13 21.35 7.14L21.35 9.67L15.83 9.67C14.5 9.67 13.42 10.77 13.42 12.13L13.42 16.17C13.42 17.52 14.5 18.62 15.83 18.62L21.35 18.62L21.35 21.15C21.35 22.17 20.54 23 19.55 23L1.8 23C0.8 23 0 22.17 0 21.15L0 7.14ZM21.89 11L15.83 11C15.22 11 14.72 11.5 14.72 12.13L14.72 16.17C14.72 16.79 15.22 17.3 15.83 17.3L21.89 17.3C22.5 17.3 23 16.79 23 16.17L23 12.13C23 11.5 22.5 11 21.89 11ZM5.27 3.98L15.75 0.07C16.41 -0.17 17.15 0.18 17.39 0.86L18.51 3.98L5.27 3.98Z" fill="#5D67FF" fill-opacity="1.000000" fill-rule="evenodd"/>
</svg>
