<svg width="15.673828" height="13.714294" viewBox="0 0 15.6738 13.7143" fill="none" xmlns="http://www.w3.org/2000/svg" xmlns:xlink="http://www.w3.org/1999/xlink">
	<desc>
			Created with Pixso.
	</desc>
	<defs/>
	<path id="Vector" d="M15.62 3.79L14.7 10.13C14.68 10.47 14.58 10.79 14.41 11.09C14.25 11.38 14.02 11.64 13.74 11.84C13.71 11.87 13.66 11.88 13.62 11.88C13.58 11.89 13.54 11.88 13.5 11.86C13.46 11.84 13.43 11.81 13.41 11.78C13.38 11.74 13.37 11.7 13.37 11.66L13.37 5.31C13.41 4.89 13.35 4.48 13.21 4.08C13.06 3.69 12.83 3.34 12.52 3.04C12.22 2.75 11.85 2.52 11.45 2.38C11.05 2.24 10.62 2.19 10.19 2.23L3.01 2.23C2.78 2.23 2.77 2.03 2.79 1.94C2.85 1.34 3.16 0.78 3.64 0.4C3.91 0.22 4.21 0.1 4.53 0.04C4.85 -0.02 5.18 -0.02 5.5 0.05L13.56 1.14C13.88 1.16 14.2 1.25 14.49 1.39C14.79 1.54 15.04 1.74 15.25 1.98C15.44 2.24 15.56 2.54 15.62 2.85C15.69 3.16 15.68 3.48 15.62 3.79ZM12.22 5.31L12.22 11.72C12.26 11.99 12.24 12.26 12.15 12.52C12.06 12.77 11.91 13.01 11.71 13.2C11.52 13.39 11.28 13.53 11.01 13.62C10.75 13.7 10.46 13.73 10.19 13.69L2.05 13.69C1.77 13.73 1.49 13.71 1.22 13.62C0.96 13.53 0.72 13.39 0.52 13.2C0.32 13.01 0.18 12.77 0.09 12.52C0 12.26 -0.03 11.99 0.01 11.72L0.01 5.31C-0.03 5.04 0 4.77 0.09 4.51C0.18 4.25 0.33 4.02 0.52 3.83C0.72 3.64 0.96 3.49 1.23 3.41C1.49 3.32 1.77 3.3 2.05 3.34L10.19 3.34C10.46 3.3 10.75 3.32 11.01 3.41C11.27 3.49 11.52 3.64 11.71 3.83C11.91 4.02 12.06 4.25 12.15 4.51C12.24 4.77 12.26 5.04 12.22 5.31ZM8.6 8.51C8.6 8.37 8.54 8.23 8.43 8.12C8.32 8.02 8.18 7.96 8.03 7.96L6.69 7.96L6.69 6.66C6.69 6.52 6.63 6.38 6.52 6.27C6.41 6.17 6.27 6.11 6.12 6.11C5.97 6.11 5.82 6.17 5.71 6.27C5.61 6.38 5.54 6.52 5.54 6.66L5.54 7.96L4.21 7.96C4.06 7.96 3.91 8.02 3.81 8.12C3.7 8.23 3.64 8.37 3.64 8.51C3.64 8.66 3.7 8.8 3.81 8.91C3.91 9.01 4.06 9.07 4.21 9.07L5.54 9.07L5.54 10.36C5.54 10.51 5.61 10.65 5.71 10.76C5.82 10.86 5.97 10.92 6.12 10.92C6.27 10.92 6.41 10.86 6.52 10.76C6.63 10.65 6.69 10.51 6.69 10.36L6.69 9.07L8.03 9.07C8.18 9.07 8.32 9.01 8.43 8.91C8.54 8.8 8.6 8.66 8.6 8.51Z" fill="#CAD4E3" fill-opacity="1.000000" fill-rule="nonzero"/>
</svg>
