<svg width="12.734375" height="12.734680" viewBox="0 0 12.7344 12.7347" fill="none" xmlns="http://www.w3.org/2000/svg" xmlns:xlink="http://www.w3.org/1999/xlink">
	<desc>
			Created with Pixso.
	</desc>
	<defs/>
	<path id="Vector" d="M2.2 12.73L10.53 12.73C11.74 12.73 12.73 11.74 12.73 10.53L12.73 2.2C12.73 0.99 11.74 0 10.53 0L2.2 0C0.99 0 0 0.99 0 2.2L0 10.53C0 11.74 0.99 12.73 2.2 12.73ZM5.2 4.04L6.24 3C6.69 2.55 7.28 2.31 7.92 2.31C8.55 2.31 9.14 2.55 9.59 3C10.51 3.92 10.51 5.42 9.59 6.34C9.41 6.52 9.14 6.52 8.96 6.34C8.79 6.17 8.79 5.89 8.96 5.72C9.25 5.44 9.4 5.07 9.4 4.67C9.4 4.28 9.25 3.9 8.96 3.62C8.39 3.04 7.45 3.04 6.87 3.62L5.83 4.66C5.25 5.24 5.25 6.18 5.83 6.76C6 6.93 6 7.21 5.83 7.38C5.74 7.47 5.63 7.51 5.52 7.51C5.4 7.51 5.29 7.47 5.2 7.38C4.28 6.46 4.28 4.96 5.2 4.04ZM3.14 6.11C3.31 5.94 3.59 5.94 3.76 6.11C3.93 6.28 3.93 6.56 3.76 6.73C3.18 7.31 3.18 8.25 3.76 8.83C4.34 9.41 5.28 9.41 5.86 8.83L6.9 7.79C7.48 7.21 7.48 6.27 6.9 5.69C6.72 5.52 6.72 5.24 6.9 5.07C7.07 4.9 7.35 4.9 7.52 5.07C8.44 5.99 8.44 7.49 7.52 8.41L6.48 9.45C6.03 9.89 5.44 10.14 4.81 10.14C4.18 10.14 3.58 9.89 3.14 9.45C2.69 9 2.44 8.41 2.44 7.78C2.44 7.15 2.69 6.55 3.14 6.11Z" fill="#CAD4E3" fill-opacity="1.000000" fill-rule="nonzero"/>
</svg>
