<svg width="13.713867" height="12.734680" viewBox="0 0 13.7139 12.7347" fill="none" xmlns="http://www.w3.org/2000/svg" xmlns:xlink="http://www.w3.org/1999/xlink">
	<desc>
			Created with Pixso.
	</desc>
	<defs/>
	<path id="Vector" d="M13.71 3.18L13.71 11.14C13.71 11.56 13.54 11.96 13.25 12.26C12.95 12.56 12.55 12.73 12.13 12.73L1.58 12.73C1.16 12.73 0.76 12.56 0.46 12.26C0.16 11.96 0 11.56 0 11.14L0 1.59C0 1.16 0.16 0.76 0.46 0.46C0.76 0.16 1.16 0 1.58 0L12.13 0C12.55 0 12.95 0.16 13.25 0.46C13.54 0.76 13.71 1.16 13.71 1.59L13.71 3.18ZM12.65 2.65L12.65 1.59C12.65 1.45 12.6 1.31 12.5 1.21C12.4 1.11 12.27 1.06 12.13 1.06L10.71 1.06L10.4 2.65L12.65 2.65ZM9.32 2.65L9.64 1.06L7.55 1.06L7.23 2.65L9.32 2.65ZM1.05 2.65L2.99 2.65L3.31 1.06L1.58 1.06C1.44 1.06 1.3 1.11 1.2 1.21C1.11 1.31 1.05 1.45 1.05 1.59L1.05 2.65ZM4.07 2.65L6.16 2.65L6.47 1.06L4.38 1.06L4.07 2.65ZM6.21 9.5L8.49 8.07C8.55 8.03 8.61 7.97 8.64 7.91C8.68 7.84 8.7 7.76 8.7 7.69C8.7 7.61 8.68 7.54 8.64 7.47C8.61 7.41 8.55 7.35 8.49 7.31L6.21 5.88C6.15 5.84 6.07 5.81 5.99 5.81C5.91 5.81 5.83 5.83 5.76 5.87C5.69 5.91 5.64 5.96 5.59 6.03C5.55 6.1 5.53 6.18 5.53 6.26L5.53 9.12C5.53 9.2 5.55 9.28 5.59 9.35C5.64 9.42 5.69 9.47 5.76 9.51C5.83 9.55 5.91 9.57 5.99 9.57C6.07 9.56 6.15 9.54 6.21 9.5Z" fill="#CAD4E3" fill-opacity="1.000000" fill-rule="evenodd"/>
</svg>
