<svg width="20.000000" height="20.000000" viewBox="0 0 20 20" fill="none" xmlns="http://www.w3.org/2000/svg" xmlns:xlink="http://www.w3.org/1999/xlink">
	<desc>
			Created with Pixso.
	</desc>
	<defs/>
	<path id="Vector" d="M9.99 0C8.23 -0.01 6.5 0.46 4.97 1.35C3.44 2.23 2.18 3.51 1.31 5.04C0.43 6.57 -0.02 8.31 0 10.07C0.01 11.84 0.49 13.57 1.39 15.09L0.05 18.78C0 18.91 -0.02 19.06 0 19.2C0.02 19.35 0.08 19.49 0.16 19.61C0.24 19.73 0.35 19.82 0.48 19.89C0.61 19.96 0.76 19.99 0.9 20C1.01 19.99 1.11 19.98 1.21 19.94L4.9 18.6C6.23 19.38 7.71 19.85 9.25 19.97C10.78 20.08 12.32 19.84 13.75 19.27C15.17 18.69 16.45 17.79 17.47 16.64C18.49 15.49 19.23 14.12 19.64 12.63C20.05 11.15 20.1 9.59 19.81 8.08C19.52 6.57 18.88 5.15 17.94 3.93C17.01 2.7 15.81 1.71 14.43 1.03C13.05 0.35 11.53 -0.01 9.99 0Z" fill="#6069FF" fill-opacity="1.000000" fill-rule="nonzero"/>
</svg>
