<svg width="18.000000" height="18.000000" viewBox="0 0 18 18" fill="none" xmlns="http://www.w3.org/2000/svg" xmlns:xlink="http://www.w3.org/1999/xlink">
	<desc>
			Created with Pixso.
	</desc>
	<defs/>
	<path id="Vector" d="M17.18 18L13.9 18C13.41 18 13.09 17.67 13.09 17.18L13.09 13.9C13.09 13.41 13.41 13.09 13.9 13.09L17.18 13.09C17.67 13.09 18 13.41 18 13.9L18 17.18C18 17.67 17.67 18 17.18 18ZM10.63 18L7.36 18C6.87 18 6.54 17.67 6.54 17.18L6.54 13.9C6.54 13.41 6.87 13.09 7.36 13.09L10.63 13.09C11.12 13.09 11.45 13.41 11.45 13.9L11.45 17.18C11.45 17.67 11.12 18 10.63 18ZM4.09 18L0.81 18C0.32 18 0 17.67 0 17.18L0 13.9C0 13.41 0.32 13.09 0.81 13.09L4.09 13.09C4.58 13.09 4.9 13.41 4.9 13.9L4.9 17.18C4.9 17.67 4.58 18 4.09 18ZM17.18 11.45L13.9 11.45C13.41 11.45 13.09 11.12 13.09 10.63L13.09 7.36C13.09 6.87 13.41 6.54 13.9 6.54L17.18 6.54C17.67 6.54 18 6.87 18 7.36L18 10.63C18 11.12 17.67 11.45 17.18 11.45ZM10.63 11.45L7.36 11.45C6.87 11.45 6.54 11.12 6.54 10.63L6.54 7.36C6.54 6.87 6.87 6.54 7.36 6.54L10.63 6.54C11.12 6.54 11.45 6.87 11.45 7.36L11.45 10.63C11.45 11.12 11.12 11.45 10.63 11.45ZM4.09 11.45L0.81 11.45C0.32 11.45 0 11.12 0 10.63L0 7.36C0 6.87 0.32 6.54 0.81 6.54L4.09 6.54C4.58 6.54 4.9 6.87 4.9 7.36L4.9 10.63C4.9 11.12 4.58 11.45 4.09 11.45ZM17.18 4.9L13.9 4.9C13.41 4.9 13.09 4.58 13.09 4.09L13.09 0.81C13.09 0.32 13.41 0 13.9 0L17.18 0C17.67 0 18 0.32 18 0.81L18 4.09C18 4.58 17.67 4.9 17.18 4.9ZM10.63 4.9L7.36 4.9C6.87 4.9 6.54 4.58 6.54 4.09L6.54 0.81C6.54 0.32 6.87 0 7.36 0L10.63 0C11.12 0 11.45 0.32 11.45 0.81L11.45 4.09C11.45 4.58 11.12 4.9 10.63 4.9ZM4.09 4.9L0.81 4.9C0.32 4.9 0 4.58 0 4.09L0 0.81C0 0.32 0.32 0 0.81 0L4.09 0C4.58 0 4.9 0.32 4.9 0.81L4.9 4.09C4.9 4.58 4.58 4.9 4.09 4.9Z" fill="#6069FF" fill-opacity="1.000000" fill-rule="nonzero"/>
</svg>
