<svg width="18.000000" height="18.000000" viewBox="0 0 18 18" fill="none" xmlns="http://www.w3.org/2000/svg" xmlns:xlink="http://www.w3.org/1999/xlink">
	<desc>
			Created with Pixso.
	</desc>
	<defs/>
	<path id="Vector" d="M8.16 11.72C8.16 11.22 7.96 10.74 7.6 10.39C7.25 10.03 6.77 9.83 6.27 9.83C5.03 9.83 3.13 9.83 1.88 9.83C1.38 9.83 0.9 10.03 0.55 10.39C0.19 10.74 0 11.22 0 11.72L0 16.11C0 16.61 0.19 17.09 0.55 17.44C0.9 17.8 1.38 18 1.88 18L6.27 18C6.77 18 7.25 17.8 7.6 17.44C7.96 17.09 8.16 16.61 8.16 16.11L8.16 11.72ZM17.57 11.72C17.57 11.22 17.38 10.74 17.02 10.39C16.67 10.03 16.19 9.83 15.69 9.83C14.44 9.83 12.54 9.83 11.3 9.83C10.8 9.83 10.32 10.03 9.96 10.39C9.61 10.74 9.41 11.22 9.41 11.72L9.41 16.11C9.41 16.61 9.61 17.09 9.96 17.44C10.32 17.8 10.8 18 11.3 18L15.69 18C16.19 18 16.67 17.8 17.02 17.44C17.38 17.09 17.57 16.61 17.57 16.11L17.57 11.72ZM14.82 8.45L17.44 5.83C18.18 5.09 18.18 3.9 17.44 3.17L14.82 0.55C14.09 -0.19 12.9 -0.19 12.16 0.55L9.54 3.17C8.81 3.9 8.81 5.09 9.54 5.83L12.16 8.45C12.9 9.18 14.09 9.18 14.82 8.45ZM8.16 2.3C8.16 1.8 7.96 1.32 7.6 0.97C7.25 0.61 6.77 0.42 6.27 0.42C5.03 0.42 3.13 0.42 1.88 0.42C1.38 0.42 0.9 0.61 0.55 0.97C0.19 1.32 0 1.8 0 2.3L0 6.69C0 7.19 0.19 7.67 0.55 8.03C0.9 8.38 1.38 8.58 1.88 8.58L6.27 8.58C6.77 8.58 7.25 8.38 7.6 8.03C7.96 7.67 8.16 7.19 8.16 6.69L8.16 2.3Z" fill="#FFFFFF" fill-opacity="1.000000" fill-rule="evenodd"/>
</svg>
