<svg width="21.000000" height="21.000000" viewBox="0 0 21 21" fill="none" xmlns="http://www.w3.org/2000/svg" xmlns:xlink="http://www.w3.org/1999/xlink">
	<desc>
			Created with Pixso.
	</desc>
	<defs/>
	<rect id="Rectangle 2977" rx="6.000000" width="21.000000" height="21.000000" fill="#5C67FF" fill-opacity="1.000000"/>
	<path id="Vector" d="M15.88 7.85L13.15 5.11C12.99 4.96 12.74 4.96 12.59 5.11L5.79 11.91C5.73 11.97 5.7 12.04 5.68 12.11L5 15.53C4.98 15.65 5.02 15.79 5.11 15.88C5.18 15.95 5.28 16 5.39 16C5.41 16 5.44 15.99 5.46 15.99L8.88 15.31C8.95 15.29 9.02 15.26 9.08 15.2L15.88 8.4C16.03 8.25 16.03 8 15.88 7.85ZM6.04 14.31L6.4 12.52L8.47 14.59L6.68 14.95L6.04 14.31Z" fill="#FFFFFF" fill-opacity="1.000000" fill-rule="nonzero"/>
</svg>
