<svg width="13.714355" height="12.000000" viewBox="0 0 13.7144 12" fill="none" xmlns="http://www.w3.org/2000/svg" xmlns:xlink="http://www.w3.org/1999/xlink">
	<desc>
			Created with Pixso.
	</desc>
	<defs/>
	<path id="Heart" d="M12.35 7.57C11.75 8.32 9.08 10.55 7.7 11.69C7.2 12.1 6.5 12.1 6.01 11.69C4.62 10.55 1.96 8.32 1.35 7.57C0.43 6.44 0 5.36 0 4.18C0 3.04 0.38 1.98 1.08 1.21C1.8 0.43 2.77 0 3.83 0C4.62 0 5.34 0.25 5.98 0.75C6.31 1.01 6.61 1.32 6.85 1.68C7.1 1.33 7.39 1.01 7.72 0.75C8.36 0.25 9.09 0 9.88 0C10.94 0 11.91 0.43 12.62 1.21C13.32 1.98 13.71 3.03 13.71 4.18C13.71 5.36 13.28 6.44 12.35 7.57Z" fill="#6069FF" fill-opacity="1.000000" fill-rule="nonzero"/>
	<path id="Heart" d="" fill="#FD5C6B" fill-opacity="0" fill-rule="evenodd"/>
</svg>
