<svg width="15.000000" height="15.000000" viewBox="0 0 15 15" fill="none" xmlns="http://www.w3.org/2000/svg" xmlns:xlink="http://www.w3.org/1999/xlink">
	<desc>
			Created with Pixso.
	</desc>
	<defs/>
	<path id="Vector" d="M13.66 1.97C12.58 0.75 10.28 0 7.5 0C4.71 0 2.41 0.75 1.33 1.97C-0.45 4.04 -0.45 10.97 1.33 13.02C2.41 14.25 4.71 15 7.5 15C10.28 15 12.58 14.25 13.66 13.02C15.44 10.95 15.44 4.04 13.66 1.97ZM7.5 3.56C7.68 3.56 7.86 3.61 8.02 3.72C8.17 3.82 8.29 3.96 8.36 4.14C8.43 4.31 8.45 4.5 8.41 4.68C8.38 4.86 8.29 5.03 8.16 5.16C8.03 5.29 7.86 5.38 7.68 5.41C7.5 5.45 7.31 5.43 7.14 5.36C6.97 5.29 6.82 5.17 6.72 5.02C6.61 4.86 6.56 4.68 6.56 4.5C6.56 4.25 6.66 4.01 6.83 3.83C7.01 3.66 7.25 3.56 7.5 3.56ZM8.25 11.62L6.75 11.62C6.55 11.62 6.36 11.54 6.22 11.4C6.08 11.26 6 11.07 6 10.87C6 10.67 6.08 10.48 6.22 10.34C6.36 10.2 6.55 10.12 6.75 10.12L6.75 7.87C6.55 7.87 6.36 7.79 6.22 7.65C6.08 7.51 6 7.32 6 7.12C6 6.92 6.08 6.73 6.22 6.59C6.36 6.45 6.55 6.37 6.75 6.37L7.5 6.37C7.69 6.37 7.88 6.45 8.02 6.59C8.16 6.73 8.25 6.92 8.25 7.12L8.25 10.12C8.44 10.12 8.63 10.2 8.77 10.34C8.91 10.48 9 10.67 9 10.87C9 11.07 8.91 11.26 8.77 11.4C8.63 11.54 8.44 11.62 8.25 11.62Z" fill="#636BFF" fill-opacity="1.000000" fill-rule="nonzero"/>
</svg>
