<svg width="16.000000" height="16.000000" viewBox="0 0 16 16" fill="none" xmlns="http://www.w3.org/2000/svg" xmlns:xlink="http://www.w3.org/1999/xlink">
	<desc>
			Created with Pixso.
	</desc>
	<defs/>
	<path id="Vector" d="M16 8C16 3.58 12.41 0 8 0C3.58 0 0 3.58 0 8C0 12.41 3.58 16 8 16C12.41 16 16 12.41 16 8Z" fill="#6069FF" fill-opacity="1.000000" fill-rule="nonzero"/>
	<path id="Vector" d="M5.24 6.12C5.24 5.77 5.35 5.42 5.57 5.06C5.8 4.7 6.12 4.4 6.55 4.17C6.99 3.93 7.49 3.82 8.06 3.82C8.59 3.82 9.07 3.91 9.48 4.11C9.88 4.31 10.2 4.58 10.42 4.91C10.64 5.24 10.76 5.63 10.75 6.02C10.75 6.33 10.69 6.61 10.57 6.84C10.45 7.07 10.29 7.27 10.11 7.45C9.94 7.62 9.62 7.91 9.17 8.32C9.07 8.41 8.96 8.51 8.87 8.62C8.81 8.69 8.75 8.77 8.7 8.85C8.67 8.92 8.64 8.99 8.62 9.07C8.6 9.14 8.57 9.27 8.52 9.45C8.46 9.83 8.24 10.02 7.87 10.02C7.78 10.02 7.69 10.01 7.61 9.98C7.52 9.94 7.45 9.9 7.39 9.83C7.25 9.71 7.19 9.52 7.19 9.28C7.19 8.97 7.24 8.7 7.33 8.47C7.42 8.25 7.55 8.05 7.71 7.88C7.92 7.66 8.13 7.46 8.35 7.27C8.59 7.06 8.76 6.9 8.86 6.8C8.97 6.7 9.06 6.58 9.13 6.45C9.2 6.32 9.24 6.18 9.24 6.03C9.24 5.89 9.21 5.75 9.16 5.62C9.1 5.49 9.01 5.38 8.91 5.28C8.69 5.08 8.41 4.98 8.06 4.98C7.66 4.98 7.36 5.08 7.17 5.29C6.98 5.49 6.81 5.79 6.68 6.19C6.56 6.61 6.32 6.81 5.97 6.81C5.87 6.82 5.77 6.8 5.68 6.76C5.59 6.72 5.51 6.67 5.45 6.6C5.31 6.45 5.24 6.29 5.24 6.12ZM7.93 12.17C7.71 12.18 7.5 12.1 7.34 11.96C7.17 11.81 7.09 11.61 7.09 11.35C7.09 11.24 7.11 11.13 7.15 11.03C7.19 10.93 7.25 10.84 7.33 10.76C7.41 10.68 7.5 10.62 7.61 10.58C7.71 10.54 7.82 10.52 7.93 10.52C8.04 10.52 8.15 10.54 8.25 10.58C8.35 10.62 8.44 10.68 8.51 10.76C8.59 10.84 8.65 10.93 8.69 11.03C8.73 11.13 8.75 11.24 8.75 11.35C8.75 11.6 8.67 11.81 8.5 11.95C8.35 12.1 8.14 12.18 7.93 12.17Z" fill="#FFFFFF" fill-opacity="1.000000" fill-rule="nonzero"/>
</svg>
