<svg width="20.000000" height="20.000000" viewBox="0 0 20 20" fill="none" xmlns="http://www.w3.org/2000/svg" xmlns:xlink="http://www.w3.org/1999/xlink">
	<desc>
			Created with Pixso.
	</desc>
	<defs/>
	<path id="Vector" d="M19.41 1.7C19.01 1.28 18.44 1.03 17.86 1.03L16 1.03C16 0.7 16.01 0.35 16.01 0L3.99 0C3.99 0.35 4 0.7 4.01 1.03L2.13 1.03C1.55 1.03 0.98 1.28 0.58 1.7C0.17 2.13 -0.04 2.71 0 3.31C0.33 8.89 3.22 12.4 7.79 12.92L6.9 16C5.85 16 5 16.85 5 17.9L5 20L15.01 20L15.01 17.9C15.01 16.85 14.16 16 13.1 16L12.22 12.92C16.78 12.39 19.66 8.89 19.99 3.31C20.03 2.72 19.82 2.13 19.41 1.7ZM2 3.19C1.99 3.13 2.02 3.09 2.04 3.07C2.07 3.03 2.12 3.03 2.13 3.03L4.1 3.03C4.4 6.97 5.27 9.2 6.11 10.46C2.9 9.11 2.14 5.52 2 3.19ZM13.89 10.45C14.74 9.18 15.6 6.96 15.9 3.03L17.86 3.03C17.88 3.03 17.92 3.03 17.96 3.07C17.98 3.09 18 3.13 18 3.18C17.85 5.52 17.09 9.1 13.89 10.45Z" fill="#6069FF" fill-opacity="1.000000" fill-rule="nonzero"/>
</svg>
