<svg width="12.000000" height="12.000000" viewBox="0 0 12 12" fill="none" xmlns="http://www.w3.org/2000/svg" xmlns:xlink="http://www.w3.org/1999/xlink">
	<desc>
			Created with Pixso.
	</desc>
	<defs/>
	<path id="Vector" d="M11.64 1.02C11.4 0.76 11.06 0.62 10.71 0.62L9.6 0.62C9.6 0.41 9.6 0.21 9.6 0L2.39 0C2.39 0.21 2.4 0.41 2.4 0.62L1.28 0.62C0.93 0.62 0.59 0.76 0.35 1.02C0.1 1.27 -0.02 1.63 0 1.98C0.2 5.33 1.93 7.44 4.67 7.75L4.14 9.59C3.51 9.59 3 10.11 3 10.74L3 12L9 12L9 10.74C9 10.11 8.49 9.59 7.86 9.59L7.33 7.75C10.07 7.43 11.79 5.33 11.99 1.98C12.01 1.63 11.89 1.28 11.64 1.02ZM1.2 1.91C1.19 1.88 1.21 1.85 1.22 1.84C1.24 1.82 1.27 1.82 1.28 1.82L2.46 1.82C2.64 4.18 3.16 5.52 3.66 6.27C1.74 5.46 1.28 3.31 1.2 1.91ZM8.33 6.27C8.84 5.51 9.36 4.17 9.54 1.82L10.71 1.82C10.72 1.82 10.75 1.82 10.77 1.84C10.78 1.85 10.8 1.87 10.8 1.91C10.71 3.31 10.25 5.46 8.33 6.27Z" fill="#D67F5A" fill-opacity="1.000000" fill-rule="nonzero"/>
</svg>
