<svg width="16.000000" height="18.000000" viewBox="0 0 16 18" fill="none" xmlns="http://www.w3.org/2000/svg" xmlns:xlink="http://www.w3.org/1999/xlink">
	<desc>
			Created with Pixso.
	</desc>
	<defs/>
	<path id="Vector" d="M15.87 13.02C15.71 12.82 15.46 12.75 15.23 12.83C14.59 13.07 13.9 13.2 13.18 13.2C9.7 13.2 6.87 10.23 6.87 6.59C6.87 4.4 7.9 2.37 9.63 1.14C9.83 1 9.92 0.75 9.87 0.51C9.82 0.27 9.63 0.09 9.39 0.05C9.13 0.01 8.86 0 8.59 0C3.85 0 0 4.03 0 9C0 13.96 3.85 18 8.59 18C11.6 18 14.34 16.39 15.91 13.71C16.04 13.5 16.02 13.22 15.87 13.02Z" fill="#6069FF" fill-opacity="1.000000" fill-rule="nonzero"/>
</svg>
