<svg width="15.000000" height="15.000000" viewBox="0 0 15 15" fill="none" xmlns="http://www.w3.org/2000/svg" xmlns:xlink="http://www.w3.org/1999/xlink">
	<desc>
			Created with Pixso.
	</desc>
	<defs/>
	<path id="Vector" d="M10.12 8.41C10.23 8.32 10.38 8.27 10.53 8.28C10.67 8.29 10.81 8.37 10.91 8.48C11 8.6 11.05 8.75 11.03 8.9C10.98 9.54 10.91 10.1 10.85 10.41C10.61 11.7 9.5 12.87 8.28 13.15L8.28 13.15Q7.99 13.21 7.71 13.26C7.48 14.33 6.73 15.07 5.91 14.99L5.9 14.99C5.29 14.92 4.66 14.75 3.97 14.48C3.29 14.21 2.64 13.86 2.03 13.44L2.03 13.43C1.16 12.81 0.37 11.35 0.19 10.04C0.16 9.78 0.12 9.37 0.09 8.9C0.03 8.18 -0.01 7.36 0 6.71C-0.02 5.51 0.14 3.7 0.27 3.01C0.38 2.44 0.66 1.89 1.04 1.43C1.12 1.31 1.23 1.2 1.34 1.11C1.77 0.7 2.3 0.4 2.84 0.27L2.85 0.27C3.71 0.09 4.59 -0.01 5.56 3.05e-5C6.53 0 7.42 0.09 8.28 0.27L8.28 0.27C9.51 0.55 10.61 1.73 10.85 3.01C10.92 3.32 10.98 3.87 11.03 4.52C11.05 4.67 11 4.82 10.91 4.94C10.81 5.05 10.67 5.12 10.53 5.14C10.38 5.15 10.23 5.1 10.12 5C10.01 4.91 9.94 4.77 9.92 4.62C9.87 4.02 9.82 3.5 9.76 3.23L9.76 3.23C9.6 2.39 8.83 1.57 8.05 1.39C7.26 1.22 6.45 1.14 5.56 1.14C4.91 1.14 4.26 1.19 3.61 1.29Q3.79 1.35 3.97 1.42C4.65 1.7 5.3 2.05 5.91 2.47L5.91 2.47C6.78 3.09 7.57 4.55 7.74 5.87C7.84 6.58 7.95 8.38 7.94 9.55C7.94 10.31 7.9 11.3 7.84 12.07C7.91 12.06 7.98 12.05 8.05 12.03C8.83 11.85 9.6 11.03 9.76 10.19L9.76 10.19C9.82 9.92 9.88 9.4 9.92 8.8C9.94 8.65 10.01 8.51 10.12 8.41ZM14.99 6.65C15 6.67 15 6.69 15 6.71L14.99 6.71L14.99 6.73C14.99 6.74 14.99 6.74 14.99 6.74C14.99 6.75 14.99 6.76 14.99 6.77C14.99 6.78 14.99 6.8 14.98 6.81C14.98 6.82 14.98 6.82 14.98 6.82C14.98 6.84 14.98 6.86 14.97 6.87C14.94 6.97 14.89 7.06 14.82 7.13L12.84 9.16C12.73 9.27 12.59 9.33 12.44 9.33C12.3 9.33 12.16 9.27 12.05 9.16C11.95 9.06 11.89 8.91 11.89 8.76C11.89 8.61 11.94 8.46 12.05 8.36L13.09 7.28L9.26 7.28C9.11 7.28 8.97 7.22 8.86 7.12C8.76 7.01 8.7 6.86 8.7 6.71C8.7 6.56 8.76 6.41 8.86 6.31C8.97 6.2 9.11 6.14 9.26 6.14L13.1 6.14L12.05 5.07C11.95 4.96 11.89 4.81 11.89 4.66C11.89 4.51 11.95 4.36 12.05 4.26C12.16 4.15 12.3 4.09 12.45 4.09C12.6 4.09 12.74 4.15 12.84 4.26L14.83 6.31C14.91 6.38 14.96 6.48 14.98 6.59L14.98 6.6C14.99 6.61 14.99 6.63 14.99 6.65L14.99 6.65Z" fill="#5D67FF" fill-opacity="1.000000" fill-rule="evenodd"/>
</svg>
