<svg width="142.000000" height="41.000000" viewBox="0 0 142 41" fill="none" xmlns="http://www.w3.org/2000/svg" xmlns:xlink="http://www.w3.org/1999/xlink">
	<desc>
			Created with Pixso.
	</desc>
	<defs/>
	<path id="Vector" d="M20.5 0C9.19 0 0 9.19 0 20.5L0 39.71C0 40.42 0.57 41 1.28 41L20.5 41C31.8 41 41 31.8 41 20.5C41 9.19 31.8 0 20.5 0ZM21.78 25.62L11.53 25.62C10.82 25.62 10.25 25.05 10.25 24.34C10.25 23.63 10.82 23.06 11.53 23.06L21.78 23.06C22.48 23.06 23.06 23.63 23.06 24.34C23.06 25.05 22.48 25.62 21.78 25.62ZM29.46 17.93L11.53 17.93C10.82 17.93 10.25 17.36 10.25 16.65C10.25 15.94 10.82 15.37 11.53 15.37L29.46 15.37C30.17 15.37 30.75 15.94 30.75 16.65C30.75 17.36 30.17 17.93 29.46 17.93Z" fill="#FFFFFF" fill-opacity="1.000000" fill-rule="nonzero"/>
	<path id="AskME" d="M51.6 31.7C51.44 31.7 51.3 31.65 51.17 31.53C51.05 31.41 51 31.27 51 31.09C51 31.01 51.01 30.93 51.05 30.83L57.94 12.02C58 11.82 58.1 11.66 58.26 11.52C58.43 11.36 58.66 11.29 58.94 11.29L62.06 11.29C62.34 11.29 62.56 11.36 62.71 11.52C62.87 11.66 62.98 11.82 63.06 12.02L69.95 30.83C69.97 30.93 69.98 31.01 69.98 31.09C69.98 31.27 69.92 31.41 69.8 31.53C69.69 31.65 69.56 31.7 69.4 31.7L66.92 31.7C66.65 31.7 66.45 31.65 66.32 31.53C66.2 31.39 66.13 31.27 66.09 31.15L64.74 27.59L56.25 27.59L54.91 31.15C54.87 31.27 54.79 31.39 54.65 31.53C54.54 31.65 54.35 31.7 54.08 31.7L51.6 31.7ZM57.26 24.24L63.74 24.24L60.49 15.22L57.26 24.24Z" fill="#BACEEC" fill-opacity="1.000000" fill-rule="nonzero"/>
	<path id="AskME" d="M77.93 32C76.79 32 75.81 31.86 74.99 31.59C74.19 31.31 73.53 30.97 73.02 30.57C72.5 30.16 72.12 29.75 71.87 29.34C71.62 28.93 71.49 28.59 71.47 28.32C71.45 28.11 71.51 27.94 71.64 27.82C71.8 27.69 71.96 27.62 72.13 27.62L74.39 27.62C74.46 27.62 74.53 27.63 74.59 27.65C74.64 27.67 74.72 27.73 74.82 27.82C75.06 28.04 75.32 28.26 75.59 28.5C75.87 28.73 76.21 28.93 76.59 29.11C76.97 29.26 77.45 29.34 78.02 29.34C78.76 29.34 79.38 29.2 79.88 28.9C80.39 28.59 80.65 28.15 80.65 27.59C80.65 27.18 80.53 26.85 80.3 26.6C80.09 26.35 79.69 26.12 79.1 25.93C78.51 25.71 77.67 25.49 76.59 25.26C75.52 25 74.64 24.68 73.93 24.3C73.23 23.91 72.7 23.42 72.36 22.84C72.01 22.25 71.84 21.57 71.84 20.8C71.84 20.04 72.06 19.32 72.5 18.64C72.96 17.94 73.63 17.36 74.5 16.92C75.4 16.47 76.5 16.25 77.82 16.25C78.85 16.25 79.74 16.38 80.5 16.65C81.27 16.91 81.9 17.23 82.39 17.62C82.91 18 83.3 18.4 83.56 18.81C83.83 19.2 83.97 19.54 83.99 19.83C84.01 20.05 83.95 20.22 83.82 20.36C83.69 20.47 83.53 20.53 83.36 20.53L81.25 20.53C81.15 20.53 81.07 20.51 80.99 20.47C80.91 20.44 80.84 20.39 80.76 20.33C80.55 20.13 80.32 19.93 80.08 19.72C79.83 19.48 79.52 19.29 79.16 19.13C78.82 18.98 78.36 18.9 77.79 18.9C77.06 18.9 76.51 19.06 76.13 19.4C75.75 19.71 75.56 20.1 75.56 20.59C75.56 20.92 75.65 21.21 75.82 21.47C76.01 21.7 76.38 21.92 76.93 22.14C77.48 22.35 78.32 22.57 79.45 22.81C80.72 23.04 81.73 23.39 82.48 23.86C83.24 24.3 83.77 24.83 84.08 25.43C84.4 26.02 84.56 26.67 84.56 27.39C84.56 28.26 84.31 29.05 83.79 29.75C83.3 30.45 82.55 31 81.56 31.41C80.59 31.8 79.38 32 77.93 32Z" fill="#BACEEC" fill-opacity="1.000000" fill-rule="nonzero"/>
	<path id="AskME" d="M88.23 31.7C88.04 31.7 87.88 31.64 87.74 31.5C87.61 31.36 87.54 31.2 87.54 31L87.54 11.7C87.54 11.5 87.61 11.34 87.74 11.2C87.88 11.06 88.04 11 88.23 11L90.54 11C90.75 11 90.92 11.06 91.03 11.2C91.16 11.34 91.23 11.5 91.23 11.7L91.23 21.67L96.03 17.03C96.22 16.88 96.38 16.76 96.49 16.68C96.62 16.59 96.82 16.54 97.09 16.54L99.75 16.54C99.94 16.54 100.09 16.6 100.21 16.71C100.32 16.83 100.38 16.98 100.38 17.18C100.38 17.26 100.36 17.34 100.32 17.44C100.28 17.54 100.21 17.63 100.09 17.7L94.2 23.33L100.81 30.57C101 30.76 101.09 30.93 101.09 31.06C101.09 31.26 101.03 31.41 100.89 31.53C100.78 31.65 100.63 31.7 100.46 31.7L97.75 31.7C97.46 31.7 97.25 31.66 97.12 31.59C97 31.49 96.86 31.36 96.69 31.21L91.23 25.35L91.23 31C91.23 31.2 91.16 31.36 91.03 31.5C90.92 31.64 90.75 31.7 90.54 31.7L88.23 31.7Z" fill="#BACEEC" fill-opacity="1.000000" fill-rule="nonzero"/>
	<path id="AskME" d="M104.06 31.7C103.87 31.7 103.7 31.64 103.55 31.5C103.41 31.36 103.34 31.19 103.34 30.97L103.34 12.02C103.34 11.8 103.41 11.63 103.55 11.49C103.7 11.35 103.87 11.29 104.06 11.29L107.15 11.29C107.45 11.29 107.68 11.37 107.83 11.55C108 11.7 108.11 11.83 108.15 11.93L113.18 21.15L118.21 11.93C118.27 11.83 118.36 11.7 118.49 11.55C118.65 11.37 118.89 11.29 119.21 11.29L122.27 11.29C122.48 11.29 122.65 11.35 122.78 11.49C122.93 11.63 123.01 11.8 123.01 12.02L123.01 30.97C123.01 31.19 122.93 31.36 122.78 31.5C122.65 31.64 122.48 31.7 122.27 31.7L118.87 31.7C118.66 31.7 118.48 31.64 118.32 31.5C118.19 31.36 118.12 31.19 118.12 30.97L118.12 20.04L114.89 26.13C114.82 26.31 114.7 26.46 114.55 26.6C114.4 26.74 114.19 26.8 113.92 26.8L112.43 26.8C112.17 26.8 111.96 26.74 111.81 26.6C111.65 26.46 111.53 26.31 111.43 26.13L108.2 20.04L108.2 30.97C108.2 31.19 108.14 31.36 108 31.5C107.87 31.64 107.7 31.7 107.49 31.7L104.06 31.7Z" fill="#FFFFFF" fill-opacity="1.000000" fill-rule="nonzero"/>
	<path id="AskME" d="M127.7 31.7C127.49 31.7 127.32 31.64 127.19 31.5C127.06 31.36 126.99 31.19 126.99 30.97L126.99 12.02C126.99 11.8 127.06 11.63 127.19 11.49C127.32 11.35 127.49 11.29 127.7 11.29L141.05 11.29C141.26 11.29 141.43 11.35 141.57 11.49C141.7 11.63 141.77 11.8 141.77 12.02L141.77 14.76C141.77 14.97 141.7 15.15 141.57 15.28C141.43 15.42 141.26 15.49 141.05 15.49L131.93 15.49L131.93 19.42L140.42 19.42C140.63 19.42 140.8 19.5 140.94 19.66C141.07 19.79 141.14 19.97 141.14 20.18L141.14 22.72C141.14 22.91 141.07 23.09 140.94 23.25C140.8 23.38 140.63 23.45 140.42 23.45L131.93 23.45L131.93 27.5L141.28 27.5C141.49 27.5 141.66 27.57 141.8 27.71C141.93 27.84 142 28.02 142 28.23L142 30.97C142 31.19 141.93 31.36 141.8 31.5C141.66 31.64 141.49 31.7 141.28 31.7L127.7 31.7Z" fill="#FFFFFF" fill-opacity="1.000000" fill-rule="nonzero"/>
</svg>
