<svg width="17.000000" height="16.000000" viewBox="0 0 17 16" fill="none" xmlns="http://www.w3.org/2000/svg" xmlns:xlink="http://www.w3.org/1999/xlink">
	<desc>
			Created with Pixso.
	</desc>
	<defs/>
	<path id="Vector" d="M8.5 0C3.8 0 0 3.58 0 8C0 12.41 3.8 16 8.5 16C13.19 16 17 12.41 17 8C17 3.58 13.19 0 8.5 0ZM12.5 9.02L7.3 11.85C7.1 11.96 6.88 12.01 6.67 12.01C6.45 12.01 6.23 11.96 6.03 11.85C5.64 11.64 5.41 11.25 5.41 10.82L5.41 5.17C5.41 4.74 5.64 4.35 6.03 4.14C6.43 3.92 6.9 3.92 7.3 4.14L12.5 6.97C12.89 7.18 13.13 7.57 13.13 8C13.13 8.42 12.89 8.81 12.5 9.02Z" fill="#626AFF" fill-opacity="1.000000" fill-rule="nonzero"/>
</svg>
