<svg width="18.000000" height="18.000000" viewBox="0 0 18 18" fill="none" xmlns="http://www.w3.org/2000/svg" xmlns:xlink="http://www.w3.org/1999/xlink">
	<desc>
			Created with Pixso.
	</desc>
	<defs/>
	<path id="Vector" d="M5.44 14.2C6.75 15.17 8.37 15.74 10.12 15.74C14.47 15.74 18 12.22 18 7.87C18 3.52 14.47 0 10.12 0C5.78 0 2.25 3.52 2.25 7.87C2.25 9.64 2.83 11.27 3.82 12.58L0.33 16.07L0.32 16.08C-0.12 16.52 -0.11 17.23 0.33 17.67C0.54 17.88 0.83 18 1.13 18C1.43 18 1.71 17.88 1.92 17.67L5.44 14.2ZM6.25 11.95C7.26 12.91 8.62 13.5 10.12 13.5C13.23 13.5 15.75 10.98 15.75 7.87C15.75 4.76 13.23 2.25 10.12 2.25C7.02 2.25 4.5 4.76 4.5 7.87C4.5 9.38 5.1 10.75 6.07 11.77C6.11 11.8 6.14 11.83 6.18 11.87C6.21 11.9 6.23 11.92 6.25 11.95Z" fill="#626AFF" fill-opacity="1.000000" fill-rule="evenodd"/>
</svg>
