<svg width="14.777832" height="14.000000" viewBox="0 0 14.7778 14" fill="none" xmlns="http://www.w3.org/2000/svg" xmlns:xlink="http://www.w3.org/1999/xlink">
	<desc>
			Created with Pixso.
	</desc>
	<defs/>
	<path id="Vector" d="M9.24 0.22C9.13 0.11 9 0.04 8.86 0.01C8.71 -0.02 8.57 0 8.43 0.05C8.3 0.11 8.18 0.21 8.1 0.34C8.02 0.46 7.97 0.61 7.97 0.76L7.97 3.46C5.85 3.48 3.82 4.37 2.33 5.94C0.84 7.51 0 9.63 0 11.84L0 13.23C0 13.39 0.05 13.55 0.14 13.68C0.24 13.82 0.37 13.91 0.52 13.96C0.59 13.98 0.66 14 0.73 14C0.86 14 0.98 13.96 1.08 13.9C1.19 13.84 1.28 13.76 1.35 13.65C4.17 9.24 6.88 8.93 7.97 9.02L7.97 11.84C7.97 11.99 8.02 12.14 8.1 12.27C8.18 12.4 8.3 12.49 8.43 12.55C8.57 12.61 8.71 12.63 8.86 12.6C9 12.57 9.13 12.49 9.24 12.39L14.56 6.85C14.62 6.77 14.68 6.69 14.72 6.6C14.75 6.5 14.77 6.4 14.77 6.3C14.77 6.2 14.75 6.1 14.72 6.01C14.68 5.91 14.62 5.83 14.56 5.76L9.24 0.22Z" fill="#6069FF" fill-opacity="1.000000" fill-rule="nonzero"/>
	<path id="Vector" d="" fill="#FD5C6B" fill-opacity="0" fill-rule="evenodd"/>
</svg>
