<svg width="18.000000" height="16.105255" viewBox="0 0 18 16.1053" fill="none" xmlns="http://www.w3.org/2000/svg" xmlns:xlink="http://www.w3.org/1999/xlink">
	<desc>
			Created with Pixso.
	</desc>
	<defs/>
	<path id="Vector" d="M0.93 3.95L2.94 3.95C3.46 3.95 3.88 3.52 3.88 2.99L3.88 0.95C3.88 0.43 3.46 0 2.94 0L0.93 0C0.42 0 0 0.43 0 0.95L0 2.99C0 3.52 0.42 3.95 0.93 3.95ZM17.19 3.36L6.92 3.36C6.47 3.36 6.11 2.99 6.11 2.54L6.11 1.4C6.11 0.95 6.47 0.59 6.92 0.59L17.19 0.59C17.64 0.59 18 0.95 18 1.4L18 2.54C18 2.99 17.64 3.36 17.19 3.36ZM0 9.08C0 9.6 0.42 10.04 0.93 10.04L2.94 10.04C3.46 10.04 3.88 9.6 3.88 9.08L3.88 7.04C3.88 6.51 3.46 6.08 2.94 6.08L0.93 6.08C0.42 6.08 0 6.51 0 7.04L0 9.08ZM6.92 9.42C6.47 9.42 6.11 9.06 6.11 8.6L6.11 7.47C6.11 7.01 6.47 6.65 6.92 6.65L17.19 6.65C17.64 6.65 18 7.01 18 7.47L18 8.6C18 9.06 17.64 9.42 17.19 9.42L6.92 9.42ZM0.93 16.1C0.42 16.1 0 15.67 0 15.15L0 13.1C0 12.58 0.42 12.15 0.93 12.15L2.94 12.15C3.46 12.15 3.88 12.58 3.88 13.1L3.88 15.15C3.88 15.67 3.46 16.1 2.94 16.1L0.93 16.1ZM6.92 15.51C6.47 15.51 6.11 15.15 6.11 14.69L6.11 13.56C6.11 13.1 6.47 12.74 6.92 12.74L17.19 12.74C17.64 12.74 18 13.1 18 13.56L18 14.69C18 15.15 17.64 15.51 17.19 15.51L6.92 15.51Z" fill="#6069FF" fill-opacity="1.000000" fill-rule="evenodd"/>
</svg>
