<svg width="22.000000" height="22.000000" viewBox="0 0 22 22" fill="none" xmlns="http://www.w3.org/2000/svg" xmlns:xlink="http://www.w3.org/1999/xlink">
	<desc>
			Created with Pixso.
	</desc>
	<defs/>
	<path id="Sync" d="M1.57 11C1.57 11.43 1.21 11.78 0.78 11.78C0.35 11.78 0 11.43 0 11C0 4.93 4.93 0 11 0C14.02 0 16.82 1.2 18.85 3.27L18.85 0.78C18.85 0.35 19.2 0 19.64 0C20.07 0 20.42 0.35 20.42 0.78L20.42 5.5C20.42 5.93 20.07 6.28 19.64 6.28L14.92 6.28C14.49 6.28 14.14 5.93 14.14 5.5C14.14 5.06 14.49 4.71 14.92 4.71L18.05 4.71C16.29 2.73 13.75 1.57 11 1.57C5.8 1.57 1.57 5.8 1.57 11ZM21.21 10.21C20.78 10.21 20.42 10.56 20.42 11C20.42 16.19 16.19 20.42 11 20.42C8.24 20.42 5.7 19.26 3.94 17.28L7.07 17.28C7.5 17.28 7.85 16.93 7.85 16.5C7.85 16.06 7.5 15.71 7.07 15.71L2.35 15.71C1.92 15.71 1.57 16.06 1.57 16.5L1.57 21.21C1.57 21.64 1.92 22 2.35 22C2.79 22 3.14 21.64 3.14 21.21L3.14 18.72C5.17 20.79 7.97 22 11 22C17.06 22 22 17.06 22 11C22 10.56 21.64 10.21 21.21 10.21Z" fill="#626AFF" fill-opacity="1.000000" fill-rule="nonzero"/>
</svg>
