<svg width="26.000000" height="26.000000" viewBox="0 0 26 26" fill="none" xmlns="http://www.w3.org/2000/svg" xmlns:xlink="http://www.w3.org/1999/xlink">
	<desc>
			Created with Pixso.
	</desc>
	<defs/>
	<path id="Vector" d="M25.24 2.21C24.72 1.66 23.98 1.34 23.22 1.34L20.8 1.34C20.81 0.9 20.81 0.46 20.81 0L5.19 0C5.19 0.46 5.2 0.9 5.21 1.34L2.77 1.34C2.01 1.34 1.27 1.66 0.75 2.21C0.23 2.77 -0.05 3.53 0 4.3C0.44 11.56 4.18 16.12 10.12 16.79L8.97 20.8C7.61 20.8 6.5 21.9 6.5 23.27L6.5 26L19.51 26L19.51 23.27C19.51 21.9 18.4 20.8 17.04 20.8L15.88 16.79C21.81 16.11 25.56 11.56 25.99 4.3C26.04 3.53 25.76 2.77 25.24 2.21ZM2.6 4.14C2.59 4.07 2.62 4.02 2.65 4C2.7 3.94 2.76 3.94 2.77 3.94L5.33 3.94C5.72 9.06 6.85 11.96 7.94 13.59C3.77 11.84 2.78 7.17 2.6 4.14ZM18.06 13.58C19.16 11.94 20.28 9.05 20.67 3.94L23.22 3.94C23.24 3.94 23.3 3.94 23.34 3.99C23.37 4.02 23.4 4.07 23.4 4.14C23.21 7.17 22.22 11.83 18.06 13.58Z" fill="#F9B812" fill-opacity="1.000000" fill-rule="nonzero"/>
	<path id="1" d="M16.18 10.53Q15.94 10.33 15.43 10.33L14.49 10.33L14.49 4.92Q14.49 4.55 14.32 4.31Q14.27 4.24 14.21 4.18Q14.14 4.11 14.06 4.06Q13.82 3.9 13.48 3.9Q13.03 3.9 12.53 4.19L10.7 5.25Q10.5 5.37 10.4 5.54Q10.3 5.72 10.3 5.96Q10.3 6.08 10.33 6.2Q10.39 6.4 10.53 6.58Q10.68 6.76 10.87 6.83Q10.97 6.86 11.08 6.86Q11.11 6.86 11.13 6.86Q11.31 6.84 11.48 6.74L12.39 6.21L12.39 10.33L11.47 10.33Q10.95 10.33 10.71 10.53Q10.68 10.56 10.65 10.6Q10.47 10.8 10.47 11.15Q10.47 11.5 10.65 11.71Q10.89 12 11.47 12L15.43 12Q16 12 16.24 11.71Q16.42 11.51 16.42 11.15Q16.42 10.8 16.24 10.6Q16.21 10.56 16.18 10.53Z" fill="#FFFFFF" fill-opacity="1.000000" fill-rule="evenodd"/>
</svg>
