<svg width="26.000000" height="26.000000" viewBox="0 0 26 26" fill="none" xmlns="http://www.w3.org/2000/svg" xmlns:xlink="http://www.w3.org/1999/xlink">
	<desc>
			Created with Pixso.
	</desc>
	<defs/>
	<path id="Vector" d="M25.24 2.21C24.72 1.66 23.98 1.34 23.22 1.34L20.8 1.34C20.81 0.9 20.81 0.46 20.81 0L5.19 0C5.19 0.46 5.2 0.9 5.21 1.34L2.77 1.34C2.01 1.34 1.27 1.66 0.75 2.21C0.23 2.77 -0.05 3.53 0 4.3C0.44 11.56 4.18 16.12 10.12 16.79L8.97 20.8C7.61 20.8 6.5 21.9 6.5 23.27L6.5 26L19.51 26L19.51 23.27C19.51 21.9 18.4 20.8 17.04 20.8L15.88 16.79C21.81 16.11 25.56 11.56 25.99 4.3C26.04 3.53 25.76 2.77 25.24 2.21ZM2.6 4.14C2.59 4.07 2.62 4.02 2.65 4C2.7 3.94 2.76 3.94 2.77 3.94L5.33 3.94C5.72 9.06 6.85 11.96 7.94 13.59C3.77 11.84 2.78 7.17 2.6 4.14ZM18.06 13.58C19.16 11.94 20.28 9.05 20.67 3.94L23.22 3.94C23.24 3.94 23.3 3.94 23.34 3.99C23.37 4.02 23.4 4.07 23.4 4.14C23.21 7.17 22.22 11.83 18.06 13.58Z" fill="#D67F5A" fill-opacity="1.000000" fill-rule="nonzero"/>
	<path id="2" d="M15.87 10.53Q15.63 10.33 15.13 10.33L12.83 10.33L14.45 8.67Q15.13 7.97 15.4 7.39Q15.43 7.32 15.46 7.26Q15.68 6.73 15.68 6.12Q15.68 5.63 15.5 5.22Q15.43 5.07 15.33 4.92Q15.28 4.84 15.21 4.76Q14.88 4.36 14.35 4.13Q13.71 3.84 12.87 3.84Q12.21 3.84 11.54 4.05Q10.88 4.26 10.34 4.62Q10.14 4.76 10.06 4.92Q9.99 5.08 9.99 5.33Q9.99 5.59 10.09 5.79Q10.13 5.87 10.18 5.94Q10.31 6.11 10.48 6.17Q10.56 6.2 10.66 6.2Q10.77 6.2 10.88 6.16Q10.98 6.13 11.11 6.05Q11.24 5.98 11.29 5.96L11.52 5.84Q11.88 5.66 12.16 5.56Q12.44 5.47 12.77 5.47Q13.18 5.47 13.4 5.67Q13.4 5.67 13.41 5.67Q13.44 5.7 13.47 5.74Q13.63 5.94 13.63 6.27Q13.63 6.93 12.88 7.71L10.45 10.24Q10.17 10.53 10.1 10.86Q10.07 10.99 10.07 11.13Q10.07 11.38 10.17 11.57Q10.23 11.67 10.31 11.75Q10.36 11.8 10.41 11.84Q10.63 12 10.96 12L15.13 12Q15.63 12 15.87 11.79Q15.9 11.77 15.93 11.74Q16.12 11.54 16.12 11.15Q16.12 10.79 15.94 10.59Q15.91 10.56 15.87 10.53Z" fill="#FFFFFF" fill-opacity="1.000000" fill-rule="evenodd"/>
</svg>
