<svg width="26.000000" height="26.000000" viewBox="0 0 26 26" fill="none" xmlns="http://www.w3.org/2000/svg" xmlns:xlink="http://www.w3.org/1999/xlink">
	<desc>
			Created with Pixso.
	</desc>
	<defs/>
	<path id="Vector" d="M25.24 2.21C24.72 1.66 23.98 1.34 23.22 1.34L20.8 1.34C20.81 0.9 20.81 0.46 20.81 0L5.19 0C5.19 0.46 5.2 0.9 5.21 1.34L2.77 1.34C2.01 1.34 1.27 1.66 0.75 2.21C0.23 2.77 -0.05 3.53 0 4.3C0.44 11.56 4.18 16.12 10.12 16.79L8.97 20.8C7.61 20.8 6.5 21.9 6.5 23.27L6.5 26L19.51 26L19.51 23.27C19.51 21.9 18.4 20.8 17.04 20.8L15.88 16.79C21.81 16.11 25.56 11.56 25.99 4.3C26.04 3.53 25.76 2.77 25.24 2.21ZM2.6 4.14C2.59 4.07 2.62 4.02 2.65 4C2.7 3.94 2.76 3.94 2.77 3.94L5.33 3.94C5.72 9.06 6.85 11.96 7.94 13.59C3.77 11.84 2.78 7.17 2.6 4.14ZM18.06 13.58C19.16 11.94 20.28 9.05 20.67 3.94L23.22 3.94C23.24 3.94 23.3 3.94 23.34 3.99C23.37 4.02 23.4 4.07 23.4 4.14C23.21 7.17 22.22 11.83 18.06 13.58Z" fill="#B7B7B6" fill-opacity="1.000000" fill-rule="nonzero"/>
	<path id="3" d="M15.28 8.3Q14.95 7.99 14.46 7.85Q14.87 7.7 15.16 7.41Q15.27 7.29 15.36 7.16Q15.45 7.04 15.51 6.9Q15.69 6.52 15.69 6.06Q15.69 5.59 15.51 5.2Q15.44 5.04 15.34 4.9Q15.31 4.85 15.28 4.81Q14.94 4.37 14.35 4.12Q13.7 3.84 12.86 3.84Q12.68 3.84 12.49 3.86Q11.99 3.9 11.51 4.05Q10.84 4.26 10.35 4.62Q10.15 4.77 10.07 4.93Q9.99 5.09 9.99 5.33Q9.99 5.6 10.11 5.81Q10.14 5.87 10.19 5.93Q10.31 6.08 10.47 6.14Q10.56 6.17 10.67 6.17Q10.83 6.17 10.95 6.12Q11.08 6.07 11.29 5.96L11.53 5.84Q11.88 5.67 12.15 5.57Q12.44 5.47 12.76 5.47Q13.17 5.47 13.41 5.67Q13.43 5.68 13.45 5.7Q13.5 5.75 13.54 5.8Q13.7 6.02 13.7 6.36Q13.7 6.62 13.58 6.79Q13.51 6.88 13.42 6.94Q13.13 7.12 12.51 7.12L12 7.12Q11.78 7.12 11.62 7.22Q11.53 7.27 11.46 7.36Q11.4 7.44 11.36 7.53Q11.27 7.71 11.27 7.93Q11.27 8.15 11.36 8.34Q11.4 8.42 11.46 8.5Q11.53 8.59 11.62 8.65Q11.78 8.74 12 8.74L12.71 8.74Q13.36 8.74 13.65 8.94Q13.71 8.98 13.76 9.04Q13.93 9.23 13.93 9.58Q13.93 9.98 13.73 10.19Q13.69 10.23 13.65 10.26Q13.37 10.47 12.73 10.47Q12.37 10.47 12.08 10.37Q11.79 10.27 11.42 10.09Q11.34 10.06 11.28 10.03Q11.22 10 11.17 9.97Q10.95 9.86 10.83 9.81Q10.7 9.76 10.54 9.76Q10.44 9.76 10.34 9.79Q10.18 9.85 10.06 10Q10.02 10.06 9.98 10.12Q9.87 10.33 9.87 10.6Q9.87 10.83 9.95 11Q10.03 11.16 10.22 11.31Q10.72 11.69 11.41 11.89Q11.44 11.9 11.47 11.9Q12.13 12.09 12.83 12.09Q13.76 12.09 14.45 11.81Q15.14 11.53 15.52 11.01L15.52 11.01Q15.63 10.87 15.7 10.7Q15.89 10.3 15.89 9.8Q15.89 9.2 15.63 8.74Q15.58 8.65 15.51 8.56Q15.41 8.42 15.28 8.3Z" fill="#FFFFFF" fill-opacity="1.000000" fill-rule="evenodd"/>
</svg>
