<svg width="14.142822" height="18.000000" viewBox="0 0 14.1428 18" fill="none" xmlns="http://www.w3.org/2000/svg" xmlns:xlink="http://www.w3.org/1999/xlink">
	<desc>
			Created with Pixso.
	</desc>
	<defs/>
	<path id="Vector" d="M11.19 3.95C11.19 4.73 10.95 5.5 10.5 6.15C10.04 6.8 9.4 7.31 8.64 7.61C7.89 7.91 7.06 7.98 6.26 7.83C5.46 7.68 4.73 7.3 4.15 6.75C3.57 6.2 3.18 5.49 3.02 4.72C2.86 3.96 2.94 3.16 3.26 2.44C3.57 1.71 4.1 1.1 4.77 0.66C5.45 0.23 6.25 0 7.07 0C7.61 6.1e-5 8.14 0.1 8.65 0.3C9.15 0.5 9.6 0.79 9.98 1.15C10.37 1.52 10.67 1.96 10.88 2.44C11.08 2.92 11.19 3.43 11.19 3.95ZM7.07 9.08C5.9 9.08 4.74 9.31 3.67 9.76C2.6 10.21 1.64 10.87 0.86 11.7C-0.54 13.15 -0.2 15.47 1.56 16.5C3.21 17.48 5.12 18 7.07 18C9.01 18 10.92 17.48 12.58 16.5C14.33 15.47 14.67 13.15 13.28 11.7C12.49 10.87 11.53 10.21 10.46 9.76C9.39 9.31 8.23 9.08 7.07 9.08Z" fill="#626AFF" fill-opacity="1.000000" fill-rule="nonzero"/>
</svg>
