<svg width="30.000000" height="30.000000" viewBox="0 0 30 30" fill="none" xmlns="http://www.w3.org/2000/svg" xmlns:xlink="http://www.w3.org/1999/xlink">
	<desc>
			Created with Pixso.
	</desc>
	<defs/>
	<circle id="Ellipse 15" cx="15.000000" cy="15.000000" r="15.000000" fill="#5D67FF" fill-opacity="1.000000"/>
	<path id="₽" d="M13.4 21.16C12.87 21.16 12.46 21.01 12.17 20.73C11.89 20.43 11.74 20.01 11.74 19.46L11.74 18.55L11.24 18.55C10.91 18.55 10.66 18.47 10.48 18.31C10.32 18.15 10.23 17.91 10.23 17.61C10.23 17.31 10.32 17.08 10.48 16.93C10.66 16.76 10.91 16.68 11.24 16.68L11.74 16.68L11.74 15.67L11.24 15.67C10.91 15.67 10.66 15.59 10.48 15.43C10.32 15.27 10.23 15.03 10.23 14.73C10.23 14.43 10.32 14.2 10.48 14.05C10.66 13.88 10.91 13.8 11.24 13.8L11.74 13.8L11.74 9.98C11.74 9.44 11.89 9.03 12.17 8.74C12.46 8.45 12.87 8.31 13.42 8.31L16.24 8.31C17.2 8.31 18.01 8.47 18.66 8.81C19.32 9.13 19.81 9.58 20.15 10.16C20.48 10.72 20.65 11.37 20.65 12.09C20.65 12.84 20.48 13.48 20.15 14.01C19.81 14.54 19.32 14.95 18.67 15.24C18.02 15.52 17.23 15.67 16.28 15.67L15.05 15.67L15.05 16.68L16.78 16.68C17.1 16.68 17.35 16.76 17.52 16.93C17.7 17.08 17.79 17.31 17.79 17.61C17.79 17.91 17.7 18.15 17.52 18.31C17.35 18.47 17.1 18.55 16.78 18.55L15.05 18.55L15.05 19.46C15.05 20.01 14.92 20.43 14.64 20.73C14.36 21.01 13.95 21.16 13.4 21.16ZM15 13.8L15.81 13.8C16.37 13.8 16.81 13.69 17.12 13.47C17.45 13.24 17.61 12.85 17.61 12.3C17.61 11.74 17.45 11.34 17.14 11.11C16.83 10.87 16.39 10.75 15.81 10.75L15 10.75L15 13.8Z" fill="#FFFFFF" fill-opacity="1.000000" fill-rule="nonzero"/>
</svg>
